<svg width="810" height="747" viewBox="0 0 810 747" fill="none" xmlns="http://www.w3.org/2000/svg">
<g style="mix-blend-mode:soft-light">
<path d="M108.195 359.459C122.362 387.972 136.41 416.526 150.377 445.139C157.391 459.425 164.624 473.612 171.18 488.118C177.655 502.664 184.191 517.17 189.93 532.074L189.551 532.253C181.66 518.385 174.587 504.118 167.434 489.892C160.38 475.625 153.984 461.039 147.369 446.553C134.078 417.622 120.888 388.65 107.816 359.618L108.195 359.459Z" fill="#ABB8FC"/>
<path d="M139.018 393.631C137.484 395.783 134.435 397.875 130.909 400.306C125.708 403.893 119.372 408.276 115.745 414.633C112.956 407.101 108.632 400.087 102.694 394.727C102.076 394.149 101.399 393.651 100.761 393.093C100.303 386.398 103.611 380.142 106.54 374.602C108.413 371.056 110.047 367.987 110.405 365.297C110.485 364.719 110.086 364.181 109.489 364.102C108.911 364.022 108.373 364.42 108.293 365.018C107.974 367.349 106.44 370.259 104.647 373.626C101.997 378.627 98.8086 384.744 98.6093 391.3C91.2369 385.302 83.0076 380.68 74.3998 376.934C74.599 376.615 74.619 376.216 74.3998 375.878C71.0921 370.518 71.1718 363.882 71.2316 358.004C71.2715 354.278 71.3113 351.07 70.4744 348.679C70.2951 348.161 69.7173 347.882 69.1992 348.081C68.6811 348.261 68.4022 348.819 68.6015 349.357C69.3188 351.409 69.2988 354.458 69.2391 358.004C69.1793 363.544 69.1394 370.338 72.208 376.017C68.6811 374.543 65.1344 373.208 61.5279 371.952C61.3286 371.733 61.0895 371.574 60.7707 371.594C60.691 371.594 60.6113 371.614 60.5316 371.614C56.9251 370.378 53.2986 369.202 49.6722 368.087C52.7606 369.322 55.8491 370.538 58.9376 371.773C52.8403 372.59 47.4804 376.236 43.0968 379.225C40.1876 381.218 37.6571 382.951 35.545 383.489C35.007 383.629 34.6882 384.167 34.8277 384.705C34.9671 385.243 35.5051 385.561 36.0431 385.422C38.494 384.804 41.1441 382.971 44.2126 380.879C49.0545 377.571 54.5539 373.805 60.8305 373.586C61.229 373.566 61.5478 373.327 61.7072 372.988C61.7072 372.968 61.7072 372.948 61.7271 372.929C66.8878 375.041 71.9689 377.292 76.8506 379.962C78.9428 381.058 80.9951 382.194 83.0275 383.37C76.8108 384.565 71.3711 388.431 66.8879 391.599C63.7795 393.811 61.0895 395.723 58.8379 396.341C58.2601 396.5 57.9214 397.098 58.0808 397.656C58.2402 398.234 58.818 398.573 59.3958 398.413C62.026 397.696 64.8554 395.684 68.1232 393.352C73.2839 389.686 79.1221 385.541 85.8968 385.163C85.8968 385.163 85.9367 385.143 85.9566 385.143C91.3166 388.49 96.3577 392.296 100.741 396.76C102.315 398.334 103.77 400.027 105.125 401.801C97.9318 403.853 92.1136 409.193 87.3713 413.597C84.2231 416.526 81.5132 419.036 79.0823 420.052C78.4646 420.312 78.1856 421.029 78.4447 421.627C78.7037 422.244 79.4011 422.523 80.0188 422.264C82.8482 421.069 85.6976 418.419 89.0052 415.35C93.9866 410.727 99.6056 405.567 106.619 403.893C107.596 405.308 108.532 406.762 109.389 408.257C111.76 412.441 113.275 417.024 114.49 421.686C115.426 425.851 115.964 430.095 116.343 434.399C110.883 434.04 105.523 436.033 101.08 437.706C97.9916 438.862 95.3216 439.858 93.3091 439.878C92.791 439.878 92.3925 440.297 92.3925 440.815C92.3925 441.333 92.811 441.731 93.329 441.731C95.6802 441.712 98.4898 440.655 101.738 439.44C106.301 437.726 111.421 435.834 116.542 436.292C116.921 441.134 117.08 446.035 117.299 450.937C117.598 456.277 117.977 461.677 118.595 467.037C114.829 465.503 110.604 465.423 107.058 465.363C104.428 465.323 102.136 465.283 100.622 464.706C100.243 464.566 99.8048 464.745 99.6654 465.124C99.5259 465.503 99.7052 465.941 100.084 466.08C101.837 466.758 104.248 466.798 107.018 466.838C110.864 466.897 115.167 466.957 118.814 468.731C119.332 472.736 119.95 476.721 120.846 480.686C123.038 490.469 126.465 500.034 131.287 508.841C140.792 526.574 154.74 541.299 169.843 554.032C162.869 546.998 155.796 540.044 149.798 532.193C143.621 524.522 138.002 516.392 133.718 507.565C129.394 498.778 126.027 489.573 124.034 479.988C123.994 479.849 123.994 479.69 123.955 479.55C124.054 479.49 124.154 479.431 124.214 479.351C126.904 475.505 131.486 473.612 135.531 471.919C138.102 470.843 140.313 469.926 141.688 468.651C141.987 468.372 142.007 467.914 141.728 467.615C141.449 467.316 140.991 467.296 140.692 467.575C139.497 468.671 137.404 469.547 134.953 470.564C131.207 472.138 126.605 474.071 123.616 477.737C121.902 468.89 121.245 459.864 120.866 450.778C120.846 450.359 120.826 449.921 120.806 449.502C125.389 446.294 131.287 445.756 136.508 445.278C139.955 444.979 142.944 444.7 145.076 443.704C145.534 443.485 145.733 442.947 145.514 442.469C145.295 442.01 144.757 441.811 144.279 442.03C142.445 442.887 139.616 443.146 136.328 443.425C131.447 443.863 125.509 444.421 120.667 447.35C120.209 438.603 119.691 429.716 117.638 420.949C117.379 419.933 117.08 418.917 116.781 417.9C119.81 410.946 126.386 406.403 132.224 402.398C135.95 399.848 139.158 397.616 140.931 395.126C141.31 394.588 141.19 393.83 140.652 393.452C140.174 392.974 139.417 393.093 139.018 393.631Z" fill="#E6E9F8"/>
<path d="M70.0774 368.127C69.7785 368.645 69.0014 368.625 68.6826 368.127C61.2903 356.311 66.1919 350.154 64.4385 343.24C62.9042 337.142 70.5556 349.337 74.8595 351.509C78.5059 353.322 72.2094 364.54 70.0774 368.127Z" fill="#B5EFF9"/>
<path d="M102.478 382.493C101.94 382.832 101.203 382.453 101.163 381.796C99.8875 366.832 107.619 363.345 109.352 355.853C110.886 349.237 112.221 364.7 115.27 368.904C117.84 372.431 106.284 380.102 102.478 382.493Z" fill="#B5EFF9"/>
<path d="M124.098 408.057C123.38 408.117 122.862 407.34 123.141 406.683C129.677 391.101 139.201 391.659 144.84 385.083C149.802 379.285 143.087 395.405 143.944 401.183C144.661 406.045 129.139 407.659 124.098 408.057Z" fill="#B5EFF9"/>
<path d="M128.897 445.916C128.398 445.677 128.339 444.98 128.777 444.641C139.039 436.671 145.216 440.656 151.452 438.384C156.972 436.392 146.371 444.621 144.757 448.825C143.422 452.352 132.423 447.57 128.897 445.916Z" fill="#B5EFF9"/>
<path d="M129.918 474.23C129.479 474.17 129.26 473.652 129.519 473.274C135.417 464.726 141.096 466.28 145.32 463.032C149.046 460.183 142.949 469.01 142.73 472.616C142.551 475.625 133.006 474.629 129.918 474.23Z" fill="#B5EFF9"/>
<path d="M51.1093 376.217C51.3683 375.679 50.93 375.061 50.3322 375.061C36.4043 375.459 34.0132 382.971 27.2784 385.362C21.3406 387.474 35.7467 387.076 39.9311 389.447C43.4778 391.44 49.316 379.963 51.1093 376.217Z" fill="#B5EFF9"/>
<path d="M75.456 388.191C75.715 387.614 75.2368 386.936 74.5992 386.976C59.5953 387.673 57.1644 395.823 49.9713 398.513C43.615 400.904 59.1171 400.187 63.7 402.677C67.5257 404.73 73.6029 392.276 75.456 388.191Z" fill="#B5EFF9"/>
<path d="M96.4197 408.536C96.6389 407.838 96.0013 407.161 95.284 407.3C78.6462 410.269 77.1119 419.694 69.4804 423.759C62.7456 427.345 79.9413 424.297 85.4009 426.389C89.9838 428.162 94.9452 413.377 96.4197 408.536Z" fill="#B5EFF9"/>
<path d="M108.991 436.731C109.349 436.292 109.09 435.635 108.552 435.515C95.8596 432.765 92.014 439.022 85.3987 439.699C79.5606 440.277 92.6715 443.127 95.9393 446.215C98.6891 448.805 106.52 439.719 108.991 436.731Z" fill="#B5EFF9"/>
<path d="M113.217 466.897C113.596 466.678 113.616 466.12 113.237 465.861C104.589 460.103 99.887 463.65 94.7861 462.215C90.263 460.94 99.2096 466.897 100.744 470.145C102.019 472.875 110.507 468.412 113.217 466.897Z" fill="#B5EFF9"/>
<path d="M54.4978 369.043C54.7569 369.521 54.3783 370.099 53.8403 370.099C41.2274 370.239 38.7965 363.544 32.6395 361.651C27.1998 359.957 40.2311 359.798 43.9373 357.486C47.0457 355.574 52.7444 365.716 54.4978 369.043Z" fill="#B5EFF9"/>
<path d="M84.3074 457.552C84.1281 459.585 82.9325 462.175 81.5378 465.164C79.4854 469.587 77.0147 474.967 77.0944 480.606C72.2923 476.701 66.6733 473.752 60.6359 472.516C59.9983 472.377 59.3407 472.297 58.7031 472.178C55.774 467.913 55.515 462.454 55.2759 457.632C55.1364 454.543 54.9969 451.873 54.18 449.941C54.0007 449.522 53.5225 449.323 53.104 449.502C52.6856 449.682 52.4863 450.16 52.6657 450.578C53.3631 452.252 53.4826 454.783 53.6221 457.712C53.8413 462.075 54.1003 467.375 56.5511 471.799C49.2982 470.703 42.0454 470.882 34.8522 471.759C34.8522 471.48 34.7128 471.201 34.4537 471.062C30.1697 468.81 27.5993 464.367 25.3478 460.441C23.9131 457.951 22.6777 455.799 21.1833 454.543C20.8645 454.264 20.3863 454.304 20.1073 454.643C19.8284 454.962 19.8682 455.44 20.207 455.719C21.4822 456.795 22.6578 458.827 24.0327 461.199C26.1647 464.885 28.7949 469.428 33.0589 471.978C30.1498 472.377 27.2606 472.895 24.3913 473.473C24.1722 473.393 23.953 473.393 23.7537 473.532C23.6939 473.572 23.6541 473.612 23.6142 473.632C20.725 474.23 17.8558 474.867 15.0263 475.545C17.5569 475.146 20.0874 474.748 22.618 474.369C18.8919 477.298 16.7599 481.821 15.0263 485.528C13.8707 487.998 12.8744 490.13 11.6988 491.306C11.3999 491.605 11.3999 492.083 11.6988 492.382C11.9977 492.681 12.4759 492.681 12.7747 492.382C14.1496 491.007 15.2057 488.756 16.4211 486.165C18.334 482.061 20.5059 477.418 24.5906 474.808C24.8496 474.648 24.9692 474.349 24.9293 474.07C24.9293 474.051 24.9094 474.031 24.9094 474.011C29.1535 473.393 33.4176 472.895 37.7016 472.755C39.5148 472.656 41.328 472.596 43.1413 472.596C39.475 475.824 37.3828 480.526 35.6692 484.392C34.4737 487.082 33.4375 489.393 32.1822 490.688C31.8634 491.027 31.8833 491.545 32.2021 491.844C32.5209 492.163 33.0589 492.163 33.3578 491.824C34.8124 490.31 35.9083 487.879 37.1636 485.049C39.1562 480.586 41.3878 475.545 45.7316 472.656C45.7316 472.656 45.7515 472.636 45.7515 472.616C50.6133 472.735 55.4552 473.273 60.1178 474.529C61.7916 474.947 63.4055 475.505 64.9996 476.163C61.0344 480.347 59.261 486.165 57.8463 490.947C56.9098 494.116 56.0929 496.845 54.8774 498.479C54.5586 498.898 54.6582 499.475 55.0767 499.774C55.4951 500.073 56.0729 499.994 56.3718 499.575C57.7865 497.682 58.6433 494.793 59.6197 491.465C61.1141 486.444 62.8277 480.825 66.8128 476.96C68.0282 477.518 69.2039 478.115 70.3595 478.773C73.5675 480.626 76.377 483.077 79.0271 485.687C81.2787 488.078 83.3111 490.688 85.2439 493.398C81.478 495.291 78.7083 498.738 76.4169 501.568C74.8229 503.54 73.448 505.254 72.113 506.071C71.7742 506.27 71.6746 506.709 71.8739 507.047C72.0731 507.386 72.5115 507.486 72.8502 507.286C74.4044 506.35 75.859 504.557 77.5327 502.464C79.8839 499.535 82.534 496.268 86.1206 494.574C88.2726 497.642 90.305 500.811 92.3773 503.979C94.6687 507.406 97.0398 510.833 99.5504 514.161C96.4421 514.619 93.6126 516.213 91.2415 517.568C89.4681 518.584 87.9538 519.441 86.7184 519.66C86.3996 519.72 86.2003 520.019 86.2601 520.318C86.3199 520.636 86.5988 520.836 86.9176 520.776C88.3523 520.537 89.9463 519.62 91.8193 518.564C94.3897 517.09 97.2789 515.456 100.387 515.197C102.3 517.648 104.273 520.059 106.425 522.33C111.725 527.969 117.742 532.97 124.378 536.916C137.628 544.966 152.652 549.249 167.676 551.76C160.283 549.827 152.871 547.994 145.818 545.145C138.724 542.475 131.79 539.287 125.493 535.122C119.177 530.998 113.319 526.196 108.258 520.636C108.178 520.557 108.118 520.457 108.039 520.377C108.079 520.298 108.118 520.238 108.138 520.138C108.417 516.532 110.709 513.483 112.721 510.773C113.996 509.06 115.112 507.585 115.531 506.19C115.63 505.892 115.451 505.573 115.152 505.473C114.853 505.373 114.534 505.553 114.435 505.852C114.076 507.047 113.02 508.462 111.805 510.076C109.932 512.587 107.64 515.675 107.102 519.281C102.499 514.101 98.5342 508.342 94.7085 502.484C94.5292 502.205 94.3499 501.946 94.1705 501.667C95.9638 497.742 99.6501 495.072 102.938 492.701C105.11 491.147 106.983 489.792 108.019 488.297C108.238 487.978 108.158 487.52 107.839 487.301C107.521 487.082 107.082 487.162 106.843 487.48C105.966 488.776 104.193 490.051 102.121 491.525C99.0523 493.717 95.3462 496.427 93.2739 500.273C89.5279 494.654 85.7221 488.955 80.9201 483.953C80.3422 483.376 79.7644 482.818 79.1467 482.28C78.4294 476.481 81.0197 470.882 83.3111 465.941C84.7657 462.793 86.0409 460.063 86.2402 457.712C86.28 457.194 85.9015 456.755 85.3834 456.715C84.7856 456.656 84.3473 457.034 84.3074 457.552Z" fill="#E6E9F8"/>
<path d="M28.5553 467.655C28.5553 468.113 28.0373 468.412 27.6388 468.193C18.0944 463.252 18.9512 457.254 15.0658 453.349C11.6585 449.901 21.5216 454.982 25.2278 454.743C28.3362 454.524 28.5753 464.447 28.5553 467.655Z" fill="#B5EFF9"/>
<path d="M55.6731 464.486C55.4539 464.925 54.8163 464.945 54.5174 464.546C47.8025 455.121 51.5684 449.761 49.7751 444.122C48.201 439.141 55.155 448.865 58.8213 450.459C61.9297 451.794 57.2671 461.398 55.6731 464.486Z" fill="#B5EFF9"/>
<path d="M80.0433 472.955C79.585 473.274 78.9473 472.975 78.8676 472.417C77.0943 459.505 83.6298 456.138 84.7855 449.582C85.8017 443.784 87.6747 457.114 90.5042 460.621C92.8952 463.57 83.2313 470.723 80.0433 472.955Z" fill="#B5EFF9"/>
<path d="M98.0943 496.188C97.6758 496.228 97.357 495.79 97.5164 495.391C101.203 486.086 106.861 486.305 110.109 482.36C112.979 478.873 109.193 488.497 109.771 491.904C110.229 494.774 101.063 495.909 98.0943 496.188Z" fill="#B5EFF9"/>
<path d="M109.853 514.579C109.534 514.719 109.196 514.44 109.216 514.101C109.774 506.111 114.157 504.915 115.672 501.11C117.026 497.762 116.449 506.011 117.704 508.482C118.78 510.554 112.065 513.643 109.853 514.579Z" fill="#B5EFF9"/>
<path d="M19.1516 480.467C19.1117 480.008 18.5737 479.769 18.1951 480.008C9.1091 485.747 10.464 491.665 6.93722 495.869C3.82883 499.595 13.2138 493.677 16.9398 493.617C20.0482 493.558 19.4305 483.655 19.1516 480.467Z" fill="#B5EFF9"/>
<path d="M39.9941 478.853C39.9343 478.355 39.3565 478.116 38.938 478.375C29.2542 484.731 30.8283 491.087 27.1222 495.69C23.8345 499.755 33.857 493.219 37.8621 493.06C41.2095 492.94 40.3528 482.3 39.9941 478.853Z" fill="#B5EFF9"/>
<path d="M61.8727 484.134C61.7333 483.596 61.0558 483.396 60.6374 483.755C50.7742 492.243 53.4442 499.098 49.9772 504.796C46.9087 509.818 57.1305 501.05 61.5739 500.313C65.2999 499.675 62.7893 487.919 61.8727 484.134Z" fill="#B5EFF9"/>
<path d="M81.2791 497.902C81.3389 497.483 80.9205 497.145 80.502 497.264C70.9975 500.432 70.9178 506.071 66.7933 509.12C63.1469 511.79 72.9702 508.542 76.3376 509.299C79.167 509.957 80.8208 500.871 81.2791 497.902Z" fill="#B5EFF9"/>
<path d="M95.9058 516.273C96.0852 515.974 95.866 515.596 95.5073 515.576C87.5172 515.157 85.7837 519.342 81.8185 520.398C78.3315 521.334 86.5807 521.772 88.8721 523.327C90.8248 524.622 94.7103 518.325 95.9058 516.273Z" fill="#B5EFF9"/>
<path d="M18.5728 474.37C18.9315 474.589 18.9116 475.127 18.5529 475.326C10.244 480.367 5.99981 476.88 1.17783 478.036C-3.08623 479.052 5.48175 473.832 7.03595 470.843C8.35103 468.372 16.1021 472.855 18.5728 474.37Z" fill="#B5EFF9"/>
</g>
<g style="mix-blend-mode:soft-light">
<ellipse cx="452.355" cy="593.175" rx="357.644" ry="153.14" fill="white" fill-opacity="0.15"/>
</g>
<g style="mix-blend-mode:soft-light">
<path d="M278.289 458.108V188.923H497.061" stroke="#DDDDDD" stroke-width="1.90236" stroke-dasharray="9.51 9.51"/>
</g>
<path d="M313.072 551.807L401.69 500.558V491.922L313.072 543.039V551.807Z" fill="#1C40F2"/>
<path d="M313.072 607.373L401.69 556.138V547.357L313.072 598.605V607.373Z" fill="#1C40F2"/>
<path d="M313.072 662.82L401.69 611.704V602.923L313.072 654.171V662.82Z" fill="#1C40F2"/>
<path d="M149.545 527.972L278.147 602.21L406.763 527.972L278.147 453.734L149.545 527.972Z" fill="url(#paint0_linear_1483_6)"/>
<path d="M149.545 579.96L278.147 654.198L406.763 579.96L278.147 505.722L149.545 579.96Z" fill="url(#paint1_linear_1483_6)"/>
<path d="M149.545 476.103L278.147 550.341L406.763 476.103L278.147 401.865L149.545 476.103Z" fill="url(#paint2_linear_1483_6)"/>
<path d="M278.148 587.46L406.764 513.222V476.103L278.148 550.341V587.46Z" fill="url(#paint3_linear_1483_6)"/>
<path d="M149.545 513.222L278.147 587.46V550.341L149.545 476.103V513.222Z" fill="url(#paint4_linear_1483_6)"/>
<path d="M149.545 565.21L278.147 639.329V602.21L149.545 527.972V565.21Z" fill="url(#paint5_linear_1483_6)"/>
<path d="M149.545 617.079L278.147 691.317V654.198L149.545 579.96V617.079Z" fill="url(#paint6_linear_1483_6)"/>
<path d="M297.031 559.778C298.278 557.618 298.275 555.282 297.025 554.56C295.774 553.838 293.749 555.004 292.502 557.164C291.255 559.324 291.258 561.66 292.508 562.382C293.759 563.104 295.784 561.938 297.031 559.778Z" fill="#1C40F2"/>
<path d="M278.148 639.329L406.764 565.21V527.972L278.148 602.21V639.329Z" fill="url(#paint7_linear_1483_6)"/>
<path d="M297.054 611.743C298.301 609.583 298.298 607.247 297.048 606.525C295.797 605.803 293.773 606.969 292.526 609.129C291.279 611.289 291.281 613.625 292.532 614.347C293.782 615.069 295.807 613.903 297.054 611.743Z" fill="#1C40F2"/>
<path d="M278.148 691.317L406.764 617.079V579.96L278.148 654.198V691.317Z" fill="url(#paint8_linear_1483_6)"/>
<path d="M297.076 663.721C298.323 661.561 298.32 659.225 297.069 658.503C295.819 657.781 293.794 658.947 292.547 661.107C291.3 663.267 291.303 665.603 292.553 666.325C293.804 667.047 295.829 665.881 297.076 663.721Z" fill="#1C40F2"/>
<path d="M482.012 133.834L712.765 0.589111V191.57L555.058 282.707L482.012 133.834Z" fill="url(#paint9_linear_1483_6)"/>
<path d="M430.646 164.045L453.349 150.999L462.089 145.555L484.792 132.497C492.911 127.804 504.103 128.496 516.54 135.688C533.892 145.649 548.898 165.688 556.43 186.642C574.51 199.278 588.483 225.066 588.483 246.478C588.483 257.987 584.482 266 577.924 269.802L555.222 282.848L517.678 247.205L474.514 222.332C460.236 214.002 448.222 195.512 445.242 178.253L430.646 164.045Z" fill="url(#paint10_linear_1483_6)"/>
<path d="M421.918 183.252C421.918 202.364 435.375 225.582 451.918 235.133L529.892 280.138C539.759 285.887 548.793 286.403 555.269 282.708C561.745 279.012 565.828 270.893 565.828 259.384C565.828 238.007 551.749 212.231 533.775 199.548C526.278 178.594 511.167 158.567 493.885 148.594C481.46 141.402 470.256 140.792 462.137 145.415C455.977 149.005 451.578 155.68 449.818 164.937C442.309 161.23 435.633 161.03 430.706 163.905C425.309 167.12 421.918 173.807 421.918 183.252Z" fill="white"/>
<path opacity="0.33" d="M629.242 145.555L773.891 62.02V181.82L674.952 238.933L629.242 145.555Z" fill="url(#paint11_linear_1483_6)"/>
<path d="M596.978 164.55L611.256 156.337L616.805 152.947L631.084 144.734C636.223 141.766 643.203 142.27 651.029 146.693C661.917 152.958 671.373 165.465 675.996 178.641C687.294 186.548 696.128 202.68 696.128 216.184C696.128 223.376 693.559 228.41 689.558 230.78L675.28 238.992L651.745 216.595L624.631 200.979C615.585 195.747 608.088 184.131 606.234 173.349L596.978 164.55Z" fill="url(#paint12_linear_1483_6)"/>
<path d="M591.533 176.576C591.533 188.602 599.957 203.185 610.305 209.145L659.218 237.397C665.377 240.987 671.032 241.304 675.139 238.934C679.245 236.564 681.709 231.542 681.709 224.35C681.709 210.987 672.874 194.761 661.576 186.807C656.883 173.655 647.391 161.124 636.609 154.847C628.807 150.331 621.815 149.92 616.664 152.9C612.769 155.164 609.988 159.271 608.968 165.125C604.275 162.779 600.027 162.661 596.942 164.503C593.622 166.51 591.533 170.616 591.533 176.576Z" fill="white"/>
<path d="M537.904 74.1516L612.077 31.3047V92.7475L561.334 121.926L537.904 74.1516Z" fill="url(#paint13_linear_1483_6)"/>
<path d="M521.361 83.8076L528.659 79.5956L531.439 77.8475L538.737 73.6356C541.306 72.0986 544.897 72.4623 548.909 74.6563C554.459 77.8475 559.281 84.3238 561.756 90.9996C567.505 95.1059 572.022 103.33 572.022 110.206C572.022 113.901 570.685 116.471 568.631 117.703L561.334 121.926L549.414 110.522L535.546 102.509C530.923 99.8341 527.122 93.874 526.16 88.3246L521.361 83.8076Z" fill="url(#paint14_linear_1483_6)"/>
<path d="M518.592 90.0724C518.592 96.232 522.909 103.635 528.248 106.721L553.308 121.199C556.499 123.052 559.374 123.252 561.521 122.02C563.668 120.788 564.911 118.219 564.911 114.523C564.911 107.636 560.394 99.4232 554.634 95.3168C552.287 88.5355 547.442 82.1648 541.799 78.8914C537.786 76.6271 534.196 76.4159 531.627 77.859C530.561 78.5689 529.654 79.4923 528.963 80.5707C528.273 81.6491 527.813 82.8591 527.614 84.1241C526.699 83.5517 525.652 83.2232 524.574 83.1698C523.496 83.1164 522.422 83.3399 521.455 83.8191C519.824 84.7342 518.592 86.9868 518.592 90.0724Z" fill="white"/>
<path d="M281.948 438.53C282.269 445.415 288.133 450.699 295.001 450.379C301.87 450.019 307.132 444.174 306.81 437.289L303.396 383.168C303.035 376.283 297.211 370.999 290.342 371.319C283.474 371.68 278.172 377.524 278.533 384.409L281.948 438.53Z" fill="#F5C2A6"/>
<path d="M313.157 466.551L293.235 452.981C293.275 444.454 295.082 434.167 297.653 425.04C298.737 425.6 299.742 426.321 300.625 427.241L325.93 457.544C324.926 462.428 316.531 466.551 313.157 466.551Z" fill="#F5C2A6"/>
<path d="M278.935 385.85C279.538 379.325 279.176 372.72 279.497 366.155C279.819 359.59 280.823 352.905 283.996 347.141C286.808 341.977 291.306 337.534 292.551 331.769C293.114 329.127 292.672 326.726 292.591 324.084C292.551 322.522 293.274 321.802 294.921 322.042C298.777 322.562 300.705 328.567 301.348 331.769C301.87 334.291 301.87 336.933 301.307 339.455C300.906 341.177 300.263 342.858 299.621 344.579C297.974 347.021 296.568 349.583 296.046 352.545C295.082 357.909 297.05 363.033 297.452 368.357C298.335 379.926 289.097 387.732 284.398 397.299C284.197 397.699 284.398 397.979 284.679 398.139C283.675 400.381 282.831 402.663 282.349 405.025C281.506 409.428 282.47 413.951 283.835 418.114C284.598 420.396 285.442 422.598 286.406 424.679C282.47 421.757 279.497 417.634 278.051 412.951C275.4 404.264 278.092 394.937 278.935 385.85Z" fill="#1B1823"/>
<path d="M327.056 602.574C327.779 596.649 328.823 590.565 329.988 584.4L311.913 582.479C312.717 586.482 313.48 590.445 314.123 594.168C314.042 603.374 307.013 605.376 310.668 615.223C311.311 617.145 313.882 618.986 314.685 619.387C318.581 621.108 319.625 623.91 320.67 626.552C321.352 628.313 322.035 630.035 323.361 631.476C328.341 636.64 340.753 637.16 343.725 633.237C347.982 627.753 331.796 614.263 327.377 603.294C327.297 603.134 327.177 602.854 327.056 602.574Z" fill="#171716"/>
<path d="M365.817 569.749C367.102 569.149 369.512 568.148 371.359 566.827C372.323 569.109 373.287 571.39 374.292 573.592C374.533 573.792 374.774 573.992 374.974 574.112C385.016 581.558 407.147 584.8 406.344 592.086C405.822 597.29 394.334 603.655 386.984 601.693C384.976 601.133 383.409 599.972 381.843 598.731C379.433 596.89 376.902 594.968 372.444 595.529C371.48 595.609 368.146 595.328 366.499 594.007C357.864 587.242 362.764 581.678 358.185 573.592C360.836 572.271 363.407 570.91 365.817 569.749Z" fill="#171716"/>
<path d="M336.413 532.04C336.413 532.04 337.899 515.348 330.348 497.935C324.363 484.164 309.06 468.793 308.779 468.753C308.457 468.713 269.697 479.16 271.304 483.524C272.187 485.966 307.333 526.716 307.975 528.558C309.06 531.76 309.22 533.561 308.256 536.964C304.441 550.254 306.73 589.484 308.658 601.933C313.679 603.974 327.134 605.055 332.276 602.974C332.436 602.053 336.011 541.207 336.413 532.04C336.011 541.207 336.413 532.04 336.413 532.04Z" fill="url(#paint15_linear_1483_6)"/>
<path opacity="0.3" d="M336.374 532.681C336.374 532.441 336.414 532.241 336.414 532.041C336.053 539.686 336.294 534.562 336.374 532.681Z" fill="#123F5D"/>
<path opacity="0.3" d="M336.374 532.681C336.374 532.321 336.414 532.041 336.414 532.041C336.414 532.241 336.414 532.441 336.374 532.681Z" fill="#123F5D"/>
<path opacity="0.3" d="M308.779 468.753C309.06 468.793 324.363 484.164 330.348 497.935C337.899 515.348 336.413 532.04 336.413 532.04C336.413 532.04 336.413 532.28 336.373 532.681C336.252 535.523 335.891 541.567 335.489 548.933C326.893 541.007 326.01 518.47 312.393 525.315C309.984 525.836 311.389 534.522 317.575 535.203C316.651 536.644 313.558 536.323 313.558 536.323C306.087 554.938 307.975 573.792 310.626 592.726C311.148 596.409 312.233 599.891 313.759 603.174C311.67 602.814 309.863 602.373 308.618 601.853C306.69 589.403 304.4 550.174 308.216 536.884C309.22 533.481 309.02 531.68 307.935 528.478C307.333 526.636 272.147 485.925 271.264 483.444C269.737 479.16 308.457 468.713 308.779 468.753Z" fill="#123F5D"/>
<path d="M276.687 518.55C301.711 518.67 323.882 516.508 323.882 516.508C330.068 545.13 354.77 577.114 359.269 581.117C362.161 580.957 373.126 573.992 375.656 570.709C368.949 557.619 349.91 498.335 338.904 489.688C332.036 484.284 266.927 480.962 267.128 477.879C267.208 476.638 252.307 473.796 251.222 473.716C238.731 472.675 232.425 518.39 276.687 518.55Z" fill="url(#paint16_linear_1483_6)"/>
<path d="M255.761 380.326C255.801 383.128 257.006 385.69 258.894 387.492C260.782 389.333 263.393 390.454 266.245 390.414L291.188 401.902C294.2 401.862 293.959 388.693 295.807 386.571C295.084 385.85 294.602 384.85 294.561 383.649C294.481 381.047 293.718 379.245 292.433 376.844C291.589 375.282 288.737 371.56 288.014 370.719L284.922 369.558H283.476L268.654 369.478C268.413 369.598 268.213 369.758 268.012 369.838V369.878C257.89 376.123 262.871 371.84 255.761 380.326Z" fill="#F5C2A6"/>
<path d="M267.931 364.994L268.052 368.397L268.092 369.878L268.253 374.922C268.253 374.922 268.935 376.003 270.1 377.164L270.14 377.204C270.422 377.484 270.703 377.684 271.064 377.964C271.908 378.645 272.992 379.245 274.237 379.605C275.563 379.966 276.928 380.286 278.334 380.366C278.897 380.406 279.459 380.366 280.021 380.326C280.624 380.326 281.186 380.246 281.748 380.046C282.993 379.686 283.757 379.045 284.279 378.164C284.399 378.044 284.48 377.884 284.56 377.724C284.962 377.004 285.162 376.243 285.363 375.442L284.962 369.558L284.841 367.196L284.56 363.193L283.034 363.353L267.931 364.994Z" fill="#F5C2A6"/>
<path d="M301.469 433.766C301.068 446.776 305.205 460.146 308.94 473.877C307.534 474.597 306.169 475.518 304.884 476.238C301.228 478.32 297.975 479 293.758 479.281C290.986 479.481 287.251 479.401 284.921 481.242C283.395 482.443 283.073 484.485 281.668 485.766C279.9 487.367 277.209 488.087 274.92 488.488C262.83 490.609 249.414 493.812 243.39 483.124C239.614 476.358 245.076 470.674 246.643 463.269C249.214 451.179 248.932 442.973 248.531 431.725C248.209 422.238 246.442 414.512 244.755 405.185C243.992 401.142 236.079 395.097 236.883 390.894C238.489 382.568 257.93 375.803 264.878 372.52C266.043 382.608 270.823 396.098 282.712 396.859C301.188 398.059 291.83 378.204 285.925 369.958C296.368 370.158 299.983 378.885 303.759 389.453C305.245 393.656 309.342 399.42 309.985 403.103C312.314 416.153 301.911 419.155 301.469 433.766Z" fill="url(#paint17_linear_1483_6)"/>
<path d="M236.726 450.419C237.048 457.304 242.912 462.588 249.78 462.268C256.649 461.948 260.665 456.183 260.304 449.298L258.135 395.097C257.813 388.212 251.949 382.928 245.081 383.248C238.212 383.609 232.911 389.453 233.272 396.338L236.726 450.419Z" fill="#FFD6BF"/>
<path d="M266.563 359.11L266.081 367.397L267.527 373.161C267.527 373.161 268.169 374.122 269.374 375.122L269.415 375.162C269.696 375.403 269.937 375.603 270.298 375.803C271.142 376.443 272.186 376.964 273.431 377.284C275.319 377.764 277.247 378.085 279.135 377.925C279.737 377.925 280.3 377.844 280.862 377.644C282.268 377.244 283.071 376.523 283.633 375.563C283.995 374.962 284.236 374.282 284.396 373.561L283.914 366.276L283.674 362.713L266.563 359.11Z" fill="#F5C2A6"/>
<path d="M239.896 371.439C240.699 367.996 241.984 364.714 242.507 361.231C243.069 357.388 242.748 353.425 242.908 349.542C243.149 344.499 244.354 339.575 245.921 334.811C246.684 330.448 248.009 326.205 250.178 322.562L250.259 323.042C250.299 322.922 250.339 322.842 250.379 322.722C250.781 321.601 251.383 320.681 252.146 319.72C252.628 319.159 254.717 317.598 254.797 316.998L254.155 321.161C257.167 319.88 260.581 321.681 263.031 323.803C269.9 329.767 273.635 339.054 272.832 348.101C272.591 350.943 271.707 354.026 269.337 355.667C267.731 356.788 265.441 357.308 264.839 359.11C264.236 360.871 265.642 362.632 266.807 364.113C268.333 365.995 269.619 368.156 270.141 370.518C270.663 372.88 270.342 375.522 268.896 377.443C267.65 379.125 265.682 380.165 263.995 381.446C263.433 381.887 262.831 382.447 262.79 383.168C262.79 383.688 263.112 384.168 263.433 384.569C265.923 387.611 272.149 390.573 271.466 395.497C271.185 397.538 269.779 398.699 268.695 400.261C267.45 402.102 267.048 406.305 267.249 407.666C267.53 409.387 268.735 410.748 269.94 412.069C271.426 415.312 272.631 418.795 272.189 422.357C271.466 428.202 266.727 430.283 262.429 433.325C259.939 435.087 257.89 437.889 256.645 441.051C255.159 437.489 252.749 435.247 252.749 432.165C252.749 428.602 256.042 426.04 257.569 422.838C259.457 418.754 258.131 413.791 254.958 410.708C253.432 409.187 254.275 406.625 251.584 404.664C249.536 403.183 246.965 403.623 245.559 401.542C239.615 392.895 237.486 381.687 239.896 371.439Z" fill="#1B1823"/>
<path d="M296.086 324.524C294.439 309.072 274.879 305.269 261.905 311.514C245.075 319.56 244.834 337.934 254.314 348.462C254.555 348.702 254.755 348.942 254.956 349.223C257.487 348.262 261.302 348.702 263.391 349.062C267.85 349.823 272.067 351.825 275.802 354.346C277.65 355.587 279.899 357.189 281.104 359.19C290.302 351.704 297.452 337.294 296.086 324.524Z" fill="#1B1823"/>
<path d="M294.801 332.61C295.805 346.581 295.605 360.911 288.053 366.796C285.643 368.717 282.229 368.957 278.775 368.357C278.092 368.237 277.369 368.117 276.686 367.917C272.79 366.956 269.095 365.155 266.765 363.714C263.391 361.592 259.455 349.022 258.451 344.739C255.278 331.089 265.56 329.928 274.236 323.363C282.912 316.838 293.797 318.68 294.801 332.61Z" fill="#FFDFCD"/>
<path d="M280.263 332.97C285.244 332.41 291.871 332.29 295.245 327.927C295.888 327.086 296.41 326.125 296.852 325.044C295.486 319.28 293.156 318.84 285.565 313.636C280.424 310.153 276.086 307.111 271.226 313.316C270.382 314.396 268.535 314.837 269.499 315.197C274.278 327.126 255.882 345.5 265.924 350.944C267.37 345.78 275.483 333.531 280.263 332.97Z" fill="#1B1823"/>
<path d="M283.998 326.325C284.762 327.566 284.28 329.248 283.316 330.328C282.311 331.409 280.946 332.01 279.62 332.65C276.046 334.331 269.057 338.254 266.807 341.497C264.076 345.42 263.674 355.347 263.835 360.111C264.116 370.519 267.932 386.05 258.935 395.538C257.971 396.538 256.485 397.899 253.472 395.297C247.849 390.414 244.917 383.008 243.913 375.643C242.909 368.277 243.632 360.791 244.194 353.346C244.756 346.02 245.037 338.815 255.4 330.889C263.514 324.644 273.756 321.242 283.998 321.442V326.325Z" fill="#1B1823"/>
<path d="M260.782 354.827C263.513 357.349 266.003 358.43 267.851 357.109C269.698 355.828 269.658 353.146 267.449 350.104C265.32 347.021 261.143 346.181 259.295 347.462C257.448 348.783 257.689 351.945 260.782 354.827Z" fill="#FFDFCD"/>
<path d="M262.186 353.546C263.632 354.867 264.917 355.427 265.881 354.747C266.845 354.066 266.805 352.665 265.68 351.104C264.556 349.503 262.387 349.063 261.423 349.743C260.459 350.384 260.579 352.025 262.186 353.546Z" fill="#F5C2A6"/>
<path d="M262.666 501.177L298.333 521.313C300.02 522.273 302.752 522.233 304.398 521.233L323.276 510.104L318.135 507.182V505.781L314.641 507.822L314.118 507.542L314.078 504.62L314.118 508.103L306.487 512.586L305.965 512.346V512.906L295.923 518.791L291.224 516.109V514.868L290.139 515.508L288.573 514.588L285.44 512.826L279.977 509.744L279.937 508.183L278.572 508.983L273.872 506.301V505.1L272.828 505.701L268.128 503.019L268.088 499.536L272.948 496.654L273.912 497.174L273.832 496.094L278.732 493.211L279.656 493.732V492.651L284.516 489.769L285.48 490.369V489.288L290.34 486.406L291.304 486.927V485.846L296.164 483.004L297.088 483.524V482.443L301.948 479.601L302.872 480.122V479.041L307.732 476.199L308.656 476.719V475.638L313.556 472.756L314.48 473.276V472.196L319.38 469.313L324.08 471.995L324.12 473.196L325.285 472.516L322.553 470.995L322.513 467.472L327.373 464.59L332.113 467.272V468.473L333.157 467.872L337.897 470.554V471.755L338.941 471.155L343.64 473.837V475.038L344.685 474.437L349.384 477.119V478.36L350.469 477.72L355.168 480.402L355.208 483.884L344.886 489.929L344.283 489.569L344.243 486.767L344.283 490.289L337.375 494.372L342.476 497.254L342.516 498.656L365.611 485.045C366.455 484.565 366.856 483.924 366.856 483.284C366.856 484.445 366.896 485.606 366.896 486.767C366.896 487.407 366.495 488.048 365.651 488.528L304.438 524.635C302.792 525.636 300.06 525.636 298.373 524.715L262.706 504.58C261.863 504.1 261.461 503.499 261.461 502.859C261.461 501.698 261.421 500.537 261.421 499.376C261.421 500.097 261.822 500.697 262.666 501.177Z" fill="#BFBFBF"/>
<path d="M360.027 489.448L365.369 486.366V485.806L360.027 488.888V489.448Z" fill="#1B1823"/>
<path d="M360.027 490.409L365.369 487.327V486.767L360.027 489.809V490.409Z" fill="#1B1823"/>
<path d="M360.027 491.29L365.369 488.208V487.647L360.027 490.69V491.29Z" fill="#1B1823"/>
<path d="M306.889 523.114L311.066 520.592L310.986 517.59L306.809 520.112L306.889 523.114Z" fill="#F8F9FC"/>
<path d="M310.182 520.111L307.049 521.993V522.793L310.865 520.472L310.182 520.111Z" fill="#30273B"/>
<path d="M306.968 520.232L307.049 521.993L310.182 520.112L310.141 518.31L309.941 518.43L306.968 520.232Z" fill="#303030"/>
<path d="M307.008 520.472V521.753L309.98 519.952V518.711L307.008 520.472Z" fill="#1B1823"/>
<path d="M310.865 519.711L310.785 517.91L310.142 518.31L310.182 520.112L310.865 520.472V519.711Z" fill="#404040"/>
<path d="M267.324 507.022L263.147 504.62L263.227 501.618L267.404 504.06L267.324 507.022Z" fill="#F8F9FC"/>
<path d="M264.029 504.14L267.162 505.901L267.122 506.702L263.306 504.5L264.029 504.14Z" fill="#30273B"/>
<path d="M267.203 504.14L267.163 505.901L264.03 504.14L264.07 502.338L264.231 502.458L267.203 504.14Z" fill="#303030"/>
<path d="M267.203 504.42L267.163 505.661L264.191 503.98L264.231 502.739L267.203 504.42Z" fill="#1B1823"/>
<path d="M263.347 503.699L263.387 501.938L264.07 502.338L264.03 504.14L263.307 504.5L263.347 503.699Z" fill="#404040"/>
<path d="M272.625 510.064L270.456 508.823L270.576 505.821L272.705 507.102L272.625 510.064Z" fill="#F8F9FC"/>
<path d="M271.338 508.343L272.463 508.983V509.784L270.655 508.703L271.338 508.343Z" fill="#30273B"/>
<path d="M272.506 507.182L272.466 508.983L271.341 508.343L271.381 506.542L271.582 506.662L272.506 507.182Z" fill="#303030"/>
<path d="M272.506 507.462L272.466 508.703L271.542 508.183L271.582 506.942L272.506 507.462Z" fill="#1B1823"/>
<path d="M270.658 507.942L270.738 506.141L271.381 506.541L271.341 508.343L270.658 508.703V507.942Z" fill="#404040"/>
<path d="M275.359 511.665L273.23 510.384L273.311 507.422L275.439 508.703L275.359 511.665Z" fill="#F8F9FC"/>
<path d="M274.114 509.944L275.238 510.544L275.198 511.345L273.391 510.304L274.114 509.944Z" fill="#30273B"/>
<path d="M275.279 508.784L275.239 510.545L274.114 509.944L274.155 508.143L274.315 508.263L275.279 508.784Z" fill="#303030"/>
<path d="M275.279 509.064L275.239 510.305L274.275 509.784L274.315 508.503L275.279 509.064Z" fill="#1B1823"/>
<path d="M273.431 509.504L273.471 507.743L274.154 508.143L274.114 509.944L273.391 510.305L273.431 509.504Z" fill="#404040"/>
<path d="M318.176 515.068C318.176 515.748 317.774 516.549 317.252 516.829C316.73 517.109 316.328 516.829 316.328 516.109C316.328 515.428 316.73 514.627 317.252 514.347C317.774 514.067 318.176 514.387 318.176 515.068Z" fill="#303030"/>
<path d="M316.407 516.348C316.929 516.068 317.33 515.268 317.33 514.587C317.33 514.507 317.33 514.427 317.33 514.347C317.812 514.147 318.174 514.427 318.174 515.108C318.174 515.788 317.772 516.589 317.25 516.869C316.808 517.149 316.407 516.909 316.326 516.389C316.366 516.348 316.407 516.348 316.407 516.348Z" fill="#30273B"/>
<path d="M317.01 516.709C317.532 516.429 317.934 515.628 317.934 514.948C317.934 514.667 317.853 514.427 317.733 514.307C318.014 514.347 318.215 514.627 318.215 515.108C318.215 515.788 317.813 516.589 317.291 516.869C317.01 517.029 316.729 516.989 316.568 516.829C316.648 516.829 316.809 516.789 317.01 516.709Z" fill="#EBEBEB"/>
<path d="M314.881 516.989C314.881 517.67 314.479 518.47 313.957 518.75C313.435 519.031 313.033 518.75 313.033 518.03C313.033 517.349 313.435 516.549 313.957 516.228C314.479 515.988 314.881 516.309 314.881 516.989Z" fill="#303030"/>
<path d="M313.114 518.27C313.636 517.99 314.037 517.189 314.037 516.509C314.037 516.429 314.037 516.349 314.037 516.269C314.519 516.068 314.881 516.349 314.881 517.029C314.881 517.71 314.479 518.51 313.957 518.791C313.515 519.071 313.114 518.831 313.033 518.31C313.073 518.27 313.073 518.27 313.114 518.27Z" fill="#30273B"/>
<path d="M313.676 518.63C314.198 518.35 314.6 517.55 314.6 516.869C314.6 516.589 314.519 516.349 314.399 516.229C314.68 516.269 314.881 516.549 314.881 517.029C314.881 517.71 314.479 518.51 313.957 518.79C313.676 518.951 313.395 518.911 313.234 518.75C313.355 518.75 313.515 518.71 313.676 518.63Z" fill="#EBEBEB"/>
<path d="M314.477 472.235L319.216 474.917L324.076 472.035L319.377 469.353L314.477 472.235Z" fill="#30273B"/>
<path d="M321.146 474.997L325.846 477.679L337.855 470.634L333.156 467.952L321.146 474.997Z" fill="#30273B"/>
<path d="M308.694 475.638L313.394 478.32L318.254 475.438L313.554 472.756L308.694 475.638Z" fill="#30273B"/>
<path d="M329.982 476.478L334.682 479.16L343.639 473.916L338.939 471.194L329.982 476.478Z" fill="#30273B"/>
<path d="M302.871 479.041L307.611 481.723L312.471 478.84L307.731 476.198L302.871 479.041Z" fill="#30273B"/>
<path d="M324.48 479.681L329.18 482.363L334.08 479.521L329.34 476.839L324.48 479.681Z" fill="#30273B"/>
<path d="M309.783 481.642L314.523 484.324L319.383 481.482L314.683 478.8L309.783 481.642Z" fill="#30273B"/>
<path d="M332.675 481.563L337.414 484.205L349.424 477.159L344.684 474.477L332.675 481.563Z" fill="#30273B"/>
<path d="M297.049 482.443L301.788 485.125L306.648 482.283L301.949 479.601L297.049 482.443Z" fill="#30273B"/>
<path d="M318.977 482.923L323.716 485.605L328.576 482.723L323.877 480.081L318.977 482.923Z" fill="#30273B"/>
<path d="M340.185 483.845L344.884 486.527L355.207 480.482L350.508 477.8L340.185 483.845Z" fill="#30273B"/>
<path d="M304.238 484.925L308.978 487.607L313.838 484.725L309.138 482.043L304.238 484.925Z" fill="#30273B"/>
<path d="M327.133 484.805L331.872 487.487L336.732 484.605L332.033 481.923L327.133 484.805Z" fill="#30273B"/>
<path d="M313.518 486.126L318.217 488.808L323.117 485.965L318.378 483.283L313.518 486.126Z" fill="#30273B"/>
<path d="M321.709 487.967L326.449 490.649L331.309 487.807L326.609 485.125L321.709 487.967Z" fill="#30273B"/>
<path d="M285.441 489.288L290.181 491.93L295.041 489.088L290.342 486.406L285.441 489.288Z" fill="#30273B"/>
<path d="M331.952 488.688L336.652 491.37L344.283 486.887L339.584 484.205L331.952 488.688Z" fill="#30273B"/>
<path d="M308.012 489.369L312.751 492.051L317.611 489.168L312.872 486.486L308.012 489.369Z" fill="#30273B"/>
<path d="M316.25 491.209L320.949 493.891L325.85 491.009L321.11 488.327L316.25 491.209Z" fill="#30273B"/>
<path d="M279.656 492.691L284.356 495.373L289.256 492.49L284.516 489.808L279.656 492.691Z" fill="#30273B"/>
<path d="M302.512 492.571L307.251 495.253L312.111 492.411L307.412 489.729L302.512 492.571Z" fill="#30273B"/>
<path d="M287.608 494.692L292.308 497.375L297.168 494.492L292.469 491.81L287.608 494.692Z" fill="#30273B"/>
<path d="M310.823 494.412L315.523 497.054L320.383 494.212L315.683 491.53L310.823 494.412Z" fill="#30273B"/>
<path d="M273.832 496.093L278.572 498.775L283.432 495.893L278.732 493.211L273.832 496.093Z" fill="#30273B"/>
<path d="M268.049 499.496L272.748 502.178L277.648 499.296L272.909 496.614L268.049 499.496Z" fill="#30273B"/>
<path d="M297.049 495.813L301.748 498.495L306.648 495.613L301.909 492.931L297.049 495.813Z" fill="#30273B"/>
<path d="M282.027 497.935L286.767 500.617L291.627 497.775L286.928 495.093L282.027 497.935Z" fill="#30273B"/>
<path d="M305.123 497.734L309.863 500.416L314.723 497.534L310.023 494.852L305.123 497.734Z" fill="#30273B"/>
<path d="M291.545 499.015L296.284 501.697L301.145 498.855L296.445 496.173L291.545 499.015Z" fill="#30273B"/>
<path d="M299.697 500.897L304.437 503.579L309.297 500.737L304.597 498.055L299.697 500.897Z" fill="#30273B"/>
<path d="M286.08 502.258L290.779 504.94L295.68 502.058L290.94 499.376L286.08 502.258Z" fill="#30273B"/>
<path d="M273.793 502.779L278.533 505.461L286.084 501.017L281.385 498.335L273.793 502.779Z" fill="#30273B"/>
<path d="M294.236 504.139L298.936 506.821L303.836 503.939L299.096 501.257L294.236 504.139Z" fill="#30273B"/>
<path d="M318.053 503.699L325.041 507.622L342.514 497.334L335.525 493.411L318.053 503.699Z" fill="#30273B"/>
<path d="M301.708 506.421L306.408 509.103L314.039 504.66L309.34 501.978L301.708 506.421Z" fill="#30273B"/>
<path d="M279.895 506.221L285.358 509.343L288.491 511.105L290.097 512.025L298.291 507.182L293.592 504.5L291.061 505.981L285.599 502.898L279.895 506.221Z" fill="#30273B"/>
<path d="M262.626 497.654C260.979 498.615 260.979 500.216 262.626 501.137L298.294 521.272C299.981 522.233 302.712 522.193 304.359 521.192L365.572 485.085C367.218 484.124 367.218 482.523 365.572 481.562L329.904 461.427C328.217 460.466 325.486 460.506 323.839 461.507L262.626 497.654ZM325.044 507.622L318.055 503.659L335.487 493.371L342.476 497.334L325.044 507.622ZM335.969 491.77L314.561 504.34L309.821 501.658L331.27 489.088L335.969 491.77ZM288.493 511.105L285.36 509.343L279.898 506.221L285.601 502.858L291.064 505.941L293.594 504.46L298.334 507.142L290.1 511.945L288.493 511.105ZM321.148 474.997L333.158 467.952L337.897 470.634L325.888 477.679L321.148 474.997ZM332.676 481.562L344.685 474.517L349.385 477.199L337.375 484.244L332.676 481.562ZM355.209 480.482L344.886 486.526L340.187 483.844L350.509 477.8L355.209 480.482ZM305.925 509.383L295.884 515.268L291.184 512.586L301.226 506.661L305.925 509.383ZM329.985 476.479L338.942 471.235L343.641 473.917L334.684 479.161L329.985 476.479ZM344.284 486.886L336.652 491.37L331.953 488.688L339.584 484.204L344.284 486.886ZM314.039 504.66L306.407 509.143L301.668 506.461L309.299 501.978L314.039 504.66ZM286.083 501.017L278.532 505.46L273.833 502.778L281.384 498.335L286.083 501.017ZM295.683 502.058L290.823 504.94L286.083 502.258L290.983 499.376L295.683 502.058ZM316.248 491.21L321.148 488.327L325.847 491.009L320.947 493.852L316.248 491.21ZM297.048 482.443L301.949 479.601L306.648 482.283L301.788 485.165L297.048 482.443ZM305.122 497.735L309.982 494.892L314.721 497.574L309.821 500.457L305.122 497.735ZM286.927 495.093L291.626 497.775L286.766 500.617L282.067 497.935L286.927 495.093ZM314.48 472.235L319.381 469.353L324.08 472.035L319.22 474.877L314.48 472.235ZM314.681 478.8L319.421 481.482L314.521 484.364L309.821 481.682L314.681 478.8ZM327.133 484.805L331.993 481.923L336.692 484.605L331.832 487.487L327.133 484.805ZM292.47 491.81L297.209 494.492L292.309 497.374L287.609 494.692L292.47 491.81ZM298.012 488.568L302.712 491.25L297.852 494.132L293.152 491.45L298.012 488.568ZM303.555 485.325L308.255 488.007L303.355 490.889L298.655 488.207L303.555 485.325ZM268.049 499.496L272.909 496.614L277.648 499.296L272.788 502.178L268.049 499.496ZM273.833 496.093L278.733 493.211L283.432 495.893L278.572 498.775L273.833 496.093ZM334.081 479.521L329.181 482.363L324.482 479.681L329.342 476.839L334.081 479.521ZM312.111 492.411L307.21 495.293L302.471 492.611L307.371 489.769L312.111 492.411ZM328.579 482.723L323.719 485.605L319.019 482.923L323.879 480.081L328.579 482.723ZM306.648 495.613L301.788 498.495L297.089 495.813L301.949 492.931L306.648 495.613ZM285.441 489.288L290.301 486.406L295.04 489.088L290.14 491.93L285.441 489.288ZM301.145 498.855L296.285 501.738L291.586 499.056L296.446 496.213L301.145 498.855ZM308.697 475.638L313.557 472.756L318.256 475.438L313.396 478.32L308.697 475.638ZM323.116 485.966L318.256 488.848L313.557 486.166L318.417 483.324L323.116 485.966ZM317.613 489.168L312.753 492.01L308.014 489.328L312.874 486.446L317.613 489.168ZM315.364 478.4L320.224 475.558L324.924 478.24L320.064 481.082L315.364 478.4ZM279.657 492.691L284.517 489.809L289.216 492.491L284.356 495.333L279.657 492.691ZM299.699 500.897L304.56 498.055L309.259 500.737L304.399 503.619L299.699 500.897ZM309.138 482.043L313.878 484.725L309.018 487.607L304.278 484.925L309.138 482.043ZM310.825 494.412L315.685 491.57L320.385 494.252L315.525 497.134L310.825 494.412ZM294.237 504.139L299.097 501.257L303.796 503.939L298.936 506.821L294.237 504.139ZM302.873 479.04L307.733 476.198L312.432 478.88L307.572 481.722L302.873 479.04ZM327.374 464.67L332.113 467.352L327.253 470.234L322.554 467.552L327.374 464.67ZM291.265 485.846L296.125 483.003L300.864 485.685L296.004 488.528L291.265 485.846ZM321.71 487.967L326.57 485.085L331.31 487.767L326.45 490.649L321.71 487.967Z" fill="#F8F9FC"/>
<path d="M322.513 467.512L327.212 470.194L332.072 467.351L327.373 464.669L322.513 467.512Z" fill="#30273B"/>
<path d="M315.364 478.4L320.064 481.082L324.924 478.2L320.224 475.518L315.364 478.4Z" fill="#30273B"/>
<path d="M291.264 485.845L295.963 488.527L300.863 485.685L296.124 483.003L291.264 485.845Z" fill="#30273B"/>
<path d="M298.693 488.168L303.393 490.85L308.293 487.967L303.553 485.325L298.693 488.168Z" fill="#30273B"/>
<path d="M293.154 491.41L297.854 494.092L302.754 491.249L298.014 488.567L293.154 491.41Z" fill="#30273B"/>
<path d="M309.821 501.658L314.56 504.34L335.969 491.77L331.269 489.088L309.821 501.658Z" fill="#30273B"/>
<path d="M291.185 512.626L295.884 515.308L305.926 509.383L301.226 506.701L291.185 512.626Z" fill="#30273B"/>
<path d="M273.276 485.325C273.958 480.081 281.269 477.48 284.04 476.559C285.888 477.52 289.302 479.601 292.796 482.323C297.777 486.166 302.838 491.25 303.4 495.853C304.605 505.701 300.548 506.702 296.251 506.581C289.744 506.341 279.019 489.168 273.276 485.325Z" fill="#FFD6BF"/>
<path d="M240.5 442.093C245.32 437.329 253.072 437.329 257.812 442.133L289.623 479.961L277.332 489.048L240.38 459.466C235.64 454.662 235.68 446.896 240.5 442.093Z" fill="#FFD6BF"/>
<path d="M336.011 470.634C335.449 466.031 330.388 460.947 325.408 457.104C321.913 454.422 318.499 452.3 316.651 451.34C314.764 451.94 311.149 454.502 308.779 457.704H311.309V465.03C317.455 470.034 323.68 481.202 328.862 481.322C333.16 481.522 337.216 480.482 336.011 470.634Z" fill="#F5C2A6"/>
<path d="M309.621 476.278L370.874 440.171C371.718 439.69 372.481 439.61 373.043 439.931C374.047 440.531 375.092 441.092 376.096 441.652C375.533 441.332 374.77 441.372 373.927 441.892L370.754 443.774C370.834 443.814 370.914 443.814 370.995 443.854C371.517 444.174 372.2 444.534 372.802 444.894C373.204 445.135 373.646 445.375 374.047 445.575C374.369 445.775 374.569 446.175 374.61 446.736L365.13 479.921C365.13 481.082 364.367 482.483 363.363 483.083C362.881 482.803 362.399 482.523 361.917 482.283L363.363 483.083C363.363 483.083 300.704 521.512 301.226 521.832C300.704 521.552 300.222 521.272 299.7 520.992C299.178 520.712 298.696 520.431 298.174 520.111C297.611 519.791 297.29 519.11 297.25 518.19L306.689 481.562C306.649 479.641 307.974 477.279 309.621 476.278Z" fill="#BFBFBF"/>
<path d="M367.541 480.241C367.582 482.162 366.216 484.524 364.569 485.525L303.356 521.672C301.71 522.673 300.304 521.872 300.264 519.951L309.703 483.323C309.662 481.402 311.028 479.04 312.675 478.039L373.928 441.892C375.575 440.891 376.98 441.692 376.98 443.573L367.541 480.241ZM374.571 446.536C374.571 446.456 374.571 446.416 374.53 446.376C374.571 446.496 374.571 446.616 374.571 446.776C374.571 446.656 374.571 446.616 374.571 446.536ZM374.089 445.615C374.089 445.615 374.048 445.615 374.089 445.615C374.129 445.615 374.169 445.695 374.249 445.735C374.209 445.695 374.209 445.695 374.169 445.655C374.129 445.655 374.129 445.615 374.089 445.615ZM373.807 445.495C373.888 445.495 373.928 445.535 374.008 445.575C373.928 445.535 373.848 445.495 373.807 445.495ZM373.687 445.455C373.647 445.455 373.607 445.455 373.526 445.455C373.607 445.455 373.647 445.455 373.727 445.455C373.727 445.495 373.687 445.455 373.687 445.455ZM373.366 445.495C373.285 445.495 373.205 445.535 373.125 445.535C373.205 445.495 373.325 445.495 373.406 445.455C373.406 445.495 373.366 445.455 373.366 445.495ZM373.004 445.575C372.924 445.615 372.884 445.655 372.803 445.695C372.884 445.655 373.004 445.615 373.084 445.575C373.084 445.575 373.044 445.575 373.004 445.575ZM302.995 517.749C302.995 517.749 303.035 517.749 302.995 517.749C302.955 517.709 302.874 517.629 302.834 517.509C302.874 517.589 302.955 517.669 302.995 517.749ZM302.714 517.109C302.714 516.989 302.674 516.869 302.674 516.749C302.674 516.909 302.674 517.029 302.714 517.109ZM302.794 517.429C302.754 517.349 302.754 517.309 302.714 517.229C302.754 517.309 302.794 517.349 302.794 517.429ZM303.356 517.989C303.316 517.989 303.276 517.989 303.276 517.949C303.316 517.949 303.316 517.949 303.356 517.989ZM303.718 518.03C303.678 518.03 303.638 518.03 303.597 518.03C303.638 518.03 303.678 518.03 303.718 518.03ZM304.12 517.989C304.079 517.989 304.039 517.989 303.999 518.03C304.039 517.989 304.079 517.989 304.12 517.989ZM363.565 482.923C363.565 482.923 363.605 482.883 363.565 482.923C363.525 482.963 363.404 483.043 363.284 483.083C363.324 483.083 363.324 483.043 363.364 483.043C363.445 483.003 363.485 482.963 363.565 482.923ZM363.846 482.683C363.886 482.683 363.886 482.643 363.886 482.603C363.846 482.643 363.766 482.723 363.726 482.763C363.766 482.723 363.806 482.723 363.846 482.683ZM364.569 481.722C364.69 481.522 364.77 481.322 364.85 481.122C364.73 481.482 364.529 481.842 364.288 482.162C364.288 482.162 364.288 482.162 364.328 482.122C364.409 482.002 364.489 481.882 364.569 481.722Z" fill="#EBEBEB"/>
<path d="M315.486 483.724L320.587 480.761C321.591 480.201 322.395 478.8 322.395 477.639C322.395 476.478 321.591 476.038 320.587 476.598L315.486 479.52C314.482 480.081 313.679 481.482 313.679 482.643C313.679 483.804 314.482 484.284 315.486 483.724Z" fill="#292C36"/>
<path d="M315.687 483.963L320.788 481.041C321.792 480.481 322.596 479.08 322.596 477.919C322.596 476.758 321.792 476.318 320.788 476.878L315.687 479.8C314.683 480.361 313.88 481.762 313.88 482.923C313.88 484.084 314.683 484.524 315.687 483.963Z" fill="#30273B"/>
<path d="M730.215 509.79L683.763 476.737L648.589 505.821L648.167 505.354L680.319 473.512L683.735 475.943L695.672 466.073L695.872 466.326L730.215 509.79ZM684.265 476.321L726.985 506.72L695.576 466.968L684.265 476.321ZM680.383 474.332L653.597 500.861L683.23 476.357L680.383 474.332Z" fill="white"/>
<path d="M679.472 511.313L679.027 510.868C679.281 510.615 685.41 503.934 692.59 496.105L661.454 470.131L673.881 509.263L673.281 509.453L660.2 468.265L693.015 495.639C703.289 484.432 715.493 471.104 715.704 470.874L717.374 469.052L699.815 502.131L693.073 496.508C685.879 504.354 679.734 511.052 679.472 511.313ZM693.499 496.042L699.623 501.15L714.501 473.122C710.753 477.213 701.539 487.273 693.499 496.042Z" fill="white"/>
<path d="M698.668 464.759C698.039 464.103 693.627 464.759 693.627 464.759L706.225 639.628L711.054 638.439L698.668 464.759Z" fill="#D9722F"/>
<path d="M662.559 467.755L657.31 464.674L609.443 620.45L613.433 622.378L662.559 467.755Z" fill="#F9A157"/>
<path d="M769.628 625.452L773.827 624.084L720.082 466.101C718.263 466.633 716.443 467.165 714.624 467.697C732.959 520.281 751.293 572.866 769.628 625.452Z" fill="#FDB471"/>
<path d="M661.3 639.26L665.919 640.154L683.974 469.08L677.676 468.41L661.3 639.26Z" fill="#FAB273"/>
<path d="M690.113 554.716C675.639 554.716 662.03 553.622 651.79 551.638C644.444 550.214 635.687 547.718 635.687 543.912C635.687 540.107 644.444 537.611 651.79 536.187C662.03 534.202 675.639 533.108 690.113 533.108C704.586 533.108 718.196 534.202 728.436 536.187C735.782 537.611 744.539 540.107 744.539 543.912C744.539 547.718 735.782 550.214 728.436 551.638C718.194 553.622 704.585 554.716 690.113 554.716ZM690.113 533.738C675.679 533.738 662.111 534.827 651.91 536.804C641.999 538.725 636.316 541.316 636.316 543.911C636.316 546.506 641.999 549.098 651.91 551.018C662.111 552.994 675.679 554.083 690.113 554.083C704.547 554.083 718.114 552.994 728.316 551.018C738.227 549.096 743.91 546.506 743.91 543.911C743.91 541.314 738.227 538.724 728.316 536.804C718.114 534.827 704.547 533.738 690.113 533.738Z" fill="white"/>
<path d="M699.261 473.758C699.58 474.165 700.785 473.13 703.402 473.073C705.506 473.027 715.783 474.297 716.588 473.115C718.939 472.906 721.88 472.421 725.129 471.342C729.658 469.837 733.109 467.732 735.445 466.034C728.729 465.107 722.86 464.357 718.038 463.766C714.553 463.339 713.127 463.18 711.108 463.605C703.481 465.21 698.518 472.81 699.261 473.758Z" fill="#86C7E0"/>
<path d="M745.836 411.382C746.039 426.075 749.238 434.659 746.802 449.824C746.072 454.374 744.729 460.176 740.034 463.846C738.04 465.406 735.954 465.807 731.816 467.231C723.332 470.149 716.531 470.774 713.445 471.1C699.779 472.551 700.869 474.376 684.44 476.66C680.739 477.174 661.165 479.743 646.065 475.108C644.191 474.532 642.387 473.849 640.689 473.034C635.214 470.406 635.104 468.479 635.13 467.957C635.196 466.637 636.586 465.157 642.14 463.121C651.16 459.816 657.379 460.101 670.179 458.044C676.562 457.019 678.738 456.349 681.056 454.901C684.621 452.674 686.96 449.58 689.516 444.747C695.046 434.291 694.023 430.001 699.184 416.459C699.653 415.231 702.14 408.918 706.676 401.469C709.974 396.054 711.793 394.252 713.365 393.007C714.509 392.1 717.353 390.037 723.568 388.552C724.114 388.419 724.69 388.294 725.289 388.172C729.868 387.249 737.815 386.293 748.011 388.415C746.036 398.266 745.762 406.204 745.836 411.382Z" fill="#73B1CE"/>
<path d="M745.835 411.382C746.038 426.074 749.237 434.659 746.801 449.824C746.071 454.374 744.728 460.176 740.033 463.846C738.039 465.406 735.953 465.807 731.815 467.231C723.331 470.149 716.53 470.774 713.444 471.099C699.778 472.55 700.868 474.376 684.439 476.659C680.739 477.174 661.164 479.742 646.064 475.108C660.234 477.169 671.432 476.515 679.042 475.531C697.202 473.186 699.452 468.4 715.299 468.119C718.342 468.064 723.94 468.138 729.962 465.056C731.516 464.261 736.763 461.492 740.275 455.707C741.979 452.899 743.332 449.286 743.497 436.848C743.696 421.935 741.82 421.633 742.371 411.382C743.024 399.204 745.994 393.628 742.854 391.234C740.519 389.455 737.495 391.477 728.026 389.783C725.444 389.319 723.566 388.982 723.566 388.55C724.112 388.417 724.688 388.292 725.287 388.17C729.866 387.247 737.813 386.291 748.008 388.413C746.035 398.266 745.761 406.204 745.835 411.382Z" fill="#FDB471"/>
<path d="M574.517 306.143L573.408 304.596C573.312 304.461 573.258 304.3 573.255 304.135L573.123 295.018C573.118 294.869 573.069 294.724 572.983 294.601L560.571 277.28C559.916 276.368 558.646 276.158 557.734 276.813C556.821 277.468 556.612 278.738 557.266 279.65L563.453 288.282C563.686 288.607 563.453 289.058 563.053 289.057L559.151 289.035C558.915 289.033 558.689 289.126 558.522 289.293L557.112 290.695C556.804 291.002 556.765 291.487 557.016 291.839L557.609 292.667C557.713 292.812 557.707 293.008 557.592 293.147L555.792 295.312C555.481 295.687 555.462 296.224 555.745 296.619L556.453 297.605C556.552 297.742 556.551 297.928 556.45 298.063L555.268 299.664C555.023 299.996 555.02 300.449 555.26 300.784L561.195 309.065C561.286 309.195 561.412 309.295 561.556 309.36L563.258 310.121C563.377 310.175 563.48 310.258 563.557 310.365L565.423 312.97L574.517 306.143Z" fill="#F8B586"/>
<path d="M572.636 294.113L568.226 289.796C568.002 289.578 567.661 289.532 567.387 289.685L563.636 291.781C563.482 291.867 563.454 292.077 563.579 292.199L565.261 293.852C565.444 294.031 565.727 294.063 565.944 293.926L566.97 293.281C567.26 293.095 567.648 293.232 567.757 293.558L568.435 295.569C568.492 295.737 568.399 295.92 568.229 295.972L568.071 296.02C567.911 296.069 567.741 295.986 567.683 295.83L567.297 294.807C567.231 294.632 567.017 294.566 566.865 294.676L566.537 294.911C566.47 294.96 566.443 295.046 566.47 295.123L566.884 296.302C566.961 296.524 566.907 296.771 566.744 296.94L565.359 298.365C565.272 298.453 565.243 298.584 565.282 298.701L565.508 299.388C565.6 299.664 565.541 299.966 565.354 300.188L563.809 302.021C563.735 302.109 563.639 302.177 563.532 302.218L562.708 302.536C562.65 302.558 562.606 302.607 562.587 302.666L562.434 303.168C562.384 303.335 562.292 303.486 562.171 303.609L560.966 304.827C560.359 305.092 559.652 304.986 559.147 304.558L556.131 301.999L555.08 300.532L555.115 299.991L559.495 303.704C559.899 304.029 560.491 303.971 560.824 303.575L561.212 303.115C561.561 302.701 561.496 302.079 561.07 301.746L556.45 298.063L556.512 297.73L555.604 296.338L561.975 301.176C562.352 301.463 562.889 301.407 563.2 301.05L564.232 299.868C564.423 299.651 564.446 299.333 564.292 299.089C564.203 298.948 564.062 298.847 563.9 298.806L563.191 298.63C563.128 298.614 563.071 298.584 563.024 298.54L557.383 293.402L557.687 292.909L556.904 291.605L563.587 297.643C563.669 297.717 563.767 297.774 563.874 297.807C564.141 297.89 564.432 297.824 564.635 297.63L565.592 296.724C565.752 296.571 565.811 296.338 565.741 296.129L565.513 295.443C565.485 295.356 565.436 295.279 565.372 295.215L560.936 290.871C560.823 290.761 560.837 290.575 560.966 290.484L561.328 290.224C561.426 290.154 561.559 290.163 561.647 290.245L562.415 290.955C562.499 291.032 562.62 291.046 562.719 290.994L566.898 288.75C567.499 288.427 568.245 288.581 568.668 289.115L572.636 294.113Z" fill="#A97F68"/>
<path d="M652.233 346.699C649.048 344.975 645.011 353.482 632.965 356.594C627.978 357.883 623.865 357.668 616.649 357.288C609.166 356.895 602.988 355.732 598.598 354.684C596.949 346.412 593.617 334.977 586.448 322.911C582.554 316.358 578.366 311.028 574.544 306.818C571.511 308.884 568.479 310.949 565.445 313.016C566.666 320.519 568.389 328.741 570.826 337.495C574.014 348.943 577.795 359.045 581.588 367.705C586.423 372.091 592.736 376.951 600.681 381.247C618.588 390.931 635.629 392.807 645.812 393.054C646.477 391.593 647.382 389.456 648.241 386.803C650.337 380.341 650.762 375.191 651.018 372.219C652.846 351.069 654.19 347.758 652.233 346.699Z" fill="url(#paint18_linear_1483_6)"/>
<path d="M694.639 609.908H678.787V628.201H694.639V609.908Z" fill="#FFB584"/>
<path d="M697.687 522.095C705.307 496.789 712.928 471.482 720.548 446.176L673.299 444.042C673.197 472.195 673.096 500.346 672.994 528.499C681.226 526.365 689.456 524.231 697.687 522.095Z" fill="url(#paint19_linear_1483_6)"/>
<path d="M672.996 528.499C674.215 531.548 675.435 534.598 676.654 537.646C677.04 540.666 677.535 545.09 677.874 550.452C678.912 566.882 677.477 579.618 676.654 590.088C676.206 595.801 675.309 604.217 673.301 614.48L697.687 616.309C699.377 601.364 700.768 588.713 701.495 578.982C702.428 566.491 701.336 573.677 703.233 551.116C703.589 546.892 704.028 542.213 702.87 536.119C701.702 529.972 699.441 525.196 697.687 522.094C696.207 521.222 691.962 518.988 686.409 519.655C677.952 520.673 673.572 527.561 672.996 528.499Z" fill="url(#paint20_linear_1483_6)"/>
<path d="M670.253 651.068C669.535 648.15 669.013 643.908 670.863 639.787C672.059 637.122 673.467 636.248 674.826 633.994C676.447 631.306 677.877 626.861 676.351 619.36C677.187 618.973 680.404 617.607 684.276 618.751C687.318 619.65 689.103 621.606 689.763 622.41C690.329 623.929 691.514 624.934 692.507 624.849C693.778 624.741 695.199 622.802 694.64 620.276C695.527 621.362 696.701 623.121 697.079 625.46C697.724 629.453 695.4 631.127 694.64 636.437C693.858 641.899 695.954 642.675 694.64 645.889C692.621 650.827 686.254 652.47 684.581 652.902C677.833 654.639 672.123 652.028 670.253 651.068Z" fill="#0A82E5"/>
<path d="M669.592 647.233C671.441 648.16 674.044 649.128 677.229 649.317C686.916 649.888 693.633 642.741 694.76 641.505C694.624 640.773 694.508 640.02 694.412 639.248C693.624 632.854 694.555 627.097 695.974 622.407C696.216 622.844 696.462 623.365 696.668 623.97C697.11 625.263 697.2 626.428 697.189 627.268C697.052 627.951 696.83 628.982 696.495 630.219C695.952 632.224 695.436 633.592 695.28 634.039C693.861 638.113 696.449 641.183 695.28 644.803C694.028 648.678 690.392 650.714 688.858 651.575C680.717 656.136 671.398 651.616 670.286 651.054C670.056 649.779 669.823 648.506 669.592 647.233Z" fill="#3C4F77"/>
<path d="M654.839 347.22C662.887 350.797 668.059 350.337 671.503 348.609C678.816 344.938 679.743 334.841 684.694 334.72C685.553 334.699 688.063 334.941 691.29 340.275C699.846 354.42 696.172 375.818 692.158 405.556C691.323 411.749 690.001 421.783 688.513 434.376C676.363 433.797 664.212 433.219 652.062 432.64C652.766 421.174 653.35 409.481 653.798 397.569C654.446 380.351 654.778 363.559 654.839 347.22Z" fill="#B2D6F7"/>
<path d="M641.135 537.257L653.624 550.354L662.649 545.318L657.967 532.096L641.135 537.257Z" fill="#F8B586"/>
<path d="M654.4 430.016C652.515 431.492 649.366 433.856 645.256 436.42C631.77 444.832 622.008 446.63 600.446 456.849C595.786 459.057 589.563 462.137 585.804 468.886C584.031 472.07 583.362 475.073 583.071 476.972C584.204 479.582 586.064 483.502 588.863 487.949C596.766 500.505 605.531 506.743 613.554 513.866C619.984 519.577 628.798 528.395 637.94 541.307C646.373 539.783 654.806 538.259 663.24 536.734C655.17 530.217 650.176 523.787 647.084 519.05C639.612 507.606 639.32 500.048 631.234 492.219C625.617 486.78 619.268 484.144 614.773 482.767C645.662 471.282 676.552 459.798 707.44 448.313C707.533 440.993 707.626 433.675 707.719 426.356C699.918 428.287 690.365 430.005 679.397 430.628C669.977 431.162 661.547 430.773 654.4 430.016Z" fill="url(#paint21_linear_1483_6)"/>
<path d="M663.768 543.755C662.382 541.714 662.063 541.676 661.213 540.085C660.653 539.037 660.327 538.182 659.997 538.22C659.611 538.264 659.785 539.463 659.182 540.914C658.537 542.468 657.412 543.317 657.003 543.62C656.048 544.323 655.115 544.537 653.246 544.965C651.132 545.45 650.415 545.253 650.148 545.168C649.15 544.85 648.459 544.178 648.071 543.723L645.091 546.657L639.258 552.788L632.178 558.547L628.874 560.819C628.437 561.253 627.754 561.9 626.863 562.623C625.153 564.009 624.388 564.283 623.753 565.292C623.62 565.501 622.363 567.375 623.01 568.442C623.598 569.415 625.474 569.236 626.25 569.154C631.682 568.575 639.2 563.334 643.818 560.561C653.485 554.755 658.318 551.853 662.673 551.175C663.466 551.052 665.991 550.708 666.416 549.18C666.722 548.105 665.737 546.655 663.768 543.755Z" fill="#0A82E5"/>
<path d="M668.504 550.95L624.89 572.281L623.337 569.105C637.596 562.13 651.856 555.157 666.115 548.182C666.394 548.045 666.672 547.909 666.951 547.772C667.469 548.832 667.986 549.891 668.504 550.95Z" fill="#3C4F77"/>
<path d="M660.192 343.731C662.374 368.322 664.069 385.955 665.07 396.173C667.09 416.817 668.531 430.216 660.192 438.249C658.008 440.353 653.467 443.715 647.084 444.652C638.734 445.88 632.285 442.216 630.318 440.994C641.532 435.045 645.837 428.339 647.693 423.309C655.73 401.541 632.493 371.722 640.987 357.451C642.979 354.103 645.865 351.352 645.865 351.352C650.942 346.512 656.683 344.574 660.192 343.731Z" fill="url(#paint22_linear_1483_6)"/>
<path d="M685.19 331.534C684.372 332.149 685.747 334.725 686.409 337.327C688.947 347.304 680.899 357.332 678.484 360.804C668.153 375.651 670.896 399.806 672.387 412.942C676.151 446.086 700.955 468.847 711.195 477.243C715.938 474.917 720.682 472.591 725.427 470.265C723.497 453.495 721.566 436.727 719.636 419.957C719.331 397.09 719.025 374.222 718.722 351.355C714.186 350.014 707.334 347.49 700.128 342.514C692.163 337.01 686.598 330.473 685.19 331.534Z" fill="url(#paint23_linear_1483_6)"/>
<path d="M685.984 310.907C685.366 316.903 685.083 320.943 684.941 323.575C684.554 330.745 684.76 326.273 684.518 329.858C684.257 333.742 684.235 334.083 684.062 334.655C683.404 336.833 681.975 337.701 677.6 340.953C670.133 346.502 668.688 348.139 665.077 348.609C663.551 348.807 662.27 348.716 661.432 348.609C661.172 342.253 660.913 335.895 660.651 329.538C669.097 323.327 677.542 317.117 685.984 310.907Z" fill="#DA9770"/>
<path d="M657.527 336.823C658.312 337.062 659.59 336.889 662.147 336.543C665.849 336.041 670.438 335.573 673.769 333.413C678.763 330.174 680.5 325.062 681.816 321.191C683.444 316.4 687.458 304.594 680.772 297.493C676.549 293.008 670.212 292.684 667.51 292.723C665.179 293.098 659.123 294.402 654.994 299.578C651.914 303.442 651.46 307.416 650.971 312.397C650.128 320.978 651.292 334.917 657.527 336.823Z" fill="#F8B586"/>
<path d="M677.953 291.25C676.536 291.84 676.055 292.572 672.888 295.646C671.025 297.452 669.475 298.864 668.493 299.744C667.073 300.129 665.063 300.471 662.757 300.117C659.03 299.546 657.593 297.632 656.037 298.392C653.713 299.525 654.847 304.802 653.296 305.109C652.465 305.274 651.188 303.95 650.986 302.501C650.848 301.499 651.262 300.707 651.433 300.414C651.054 299.893 650.411 298.85 650.316 297.434C650.186 295.496 651.084 292.873 652.923 292.442C653.268 292.361 653.999 292.275 655.01 292.815C654.966 292.708 654.618 291.84 655.01 291.324C655.442 290.756 656.726 290.679 657.84 291.622C657.769 291.444 657.293 290.19 657.914 289.237C658.622 288.153 660.542 287.783 662.234 288.864C662.478 288.122 663.131 286.526 664.692 285.66C667.069 284.341 670.65 285.215 673.11 288.119C673.981 287.637 675.226 287.114 676.76 287.001C681.458 286.652 685.519 290.366 685.177 291.173C684.883 291.873 681.592 289.733 677.953 291.25Z" fill="#001042"/>
<path d="M653.147 305.148C652.905 305.148 652.632 305.045 652.348 304.843C651.761 304.425 651.105 303.54 650.96 302.506C650.831 301.573 651.177 300.803 651.402 300.418C650.744 299.508 650.359 298.477 650.29 297.437C650.222 296.431 650.434 295.283 650.858 294.364C651.202 293.616 651.838 292.67 652.917 292.418C653.537 292.274 654.242 292.392 654.961 292.761C654.865 292.506 654.637 291.773 654.989 291.309C655.164 291.079 655.468 290.931 655.844 290.89C656.476 290.821 657.18 291.059 657.784 291.545C657.652 291.175 657.337 290.077 657.894 289.225C658.594 288.153 660.496 287.743 662.222 288.829C662.565 287.801 663.269 286.426 664.681 285.64C665.86 284.987 667.351 284.86 668.878 285.285C670.443 285.719 671.947 286.715 673.116 288.089C674.287 287.445 675.513 287.071 676.759 286.978C680.585 286.693 683.979 289.09 684.945 290.437C685.181 290.766 685.269 291.024 685.201 291.185C685.087 291.457 684.575 291.334 683.801 291.148C682.483 290.834 680.278 290.306 677.962 291.271C676.886 291.72 676.348 292.255 674.753 293.843C674.263 294.329 673.656 294.935 672.904 295.662C671.455 297.067 669.976 298.447 668.508 299.76L668.498 299.766C666.541 300.298 664.607 300.424 662.752 300.139C661.015 299.873 659.782 299.319 658.789 298.874C657.674 298.373 656.868 298.011 656.047 298.413C654.791 299.025 654.555 300.854 654.347 302.468C654.173 303.82 654.023 304.99 653.301 305.133C653.249 305.144 653.199 305.148 653.147 305.148ZM653.449 292.409C653.27 292.409 653.095 292.428 652.927 292.467C651.868 292.716 651.242 293.647 650.902 294.386C650.482 295.297 650.272 296.436 650.338 297.434C650.408 298.469 650.793 299.496 651.451 300.402L651.46 300.415L651.452 300.429C651.232 300.803 650.88 301.57 651.009 302.5C651.15 303.52 651.797 304.391 652.376 304.804C652.705 305.038 653.031 305.139 653.289 305.087C653.976 304.95 654.124 303.798 654.296 302.465C654.505 300.84 654.742 298.997 656.022 298.372C656.863 297.961 657.678 298.326 658.806 298.833C659.796 299.277 661.026 299.829 662.756 300.095C664.603 300.378 666.527 300.254 668.475 299.725C669.941 298.413 671.417 297.036 672.865 295.632C673.615 294.903 674.224 294.299 674.712 293.813C676.312 292.22 676.851 291.683 677.937 291.23L677.947 291.254L677.937 291.23C680.267 290.259 682.483 290.788 683.806 291.104C684.555 291.284 685.05 291.402 685.149 291.169C685.209 291.027 685.121 290.779 684.899 290.47C683.938 289.131 680.56 286.747 676.757 287.031C675.511 287.124 674.287 287.499 673.118 288.146L673.101 288.155L673.088 288.139C670.715 285.338 667.189 284.307 664.702 285.686C663.289 286.47 662.59 287.853 662.255 288.876L662.246 288.906L662.219 288.888C660.51 287.796 658.624 288.196 657.933 289.254C657.335 290.168 657.768 291.381 657.861 291.616L657.897 291.709L657.821 291.644C657.211 291.128 656.492 290.871 655.847 290.942C655.485 290.982 655.192 291.123 655.027 291.342C654.654 291.831 654.964 292.648 655.03 292.807L655.057 292.872L654.996 292.839C654.464 292.554 653.938 292.409 653.449 292.409Z" fill="black"/>
<path d="M682.495 322.843C682.21 324.171 682.434 325.287 682.569 325.973C682.615 326.2 683.349 329.768 684.58 329.848C685.73 329.923 686.801 326.916 687.857 323.886C689.075 320.391 689.761 317.368 690.167 315.169C691.141 313.273 692.494 309.973 692.477 305.782C692.472 304.751 692.278 293.557 685.16 290.885C679.849 288.891 672.233 292.224 668.489 299.747C668.231 300.249 667.586 301.671 667.893 303.472C668.214 305.349 669.439 306.885 670.873 307.644C672.621 308.571 673.678 307.815 674.746 308.388C676.11 309.12 677.029 311.767 675.566 319.713C676.31 319.763 677.056 319.812 677.8 319.862C677.786 319.146 677.803 316.065 680.11 313.977C680.278 313.824 682.805 311.586 684.504 312.486C685.916 313.234 686.156 315.824 685.621 317.628C684.91 320.034 683.058 320.212 682.495 322.843Z" fill="url(#paint24_linear_1483_6)"/>
<path d="M684.621 329.873C684.607 329.873 684.593 329.873 684.579 329.872C683.319 329.79 682.576 326.132 682.545 325.977C682.409 325.301 682.184 324.17 682.471 322.837L682.494 322.842L682.471 322.837C682.77 321.446 683.437 320.723 684.083 320.026C684.664 319.4 685.263 318.753 685.6 317.618C686.16 315.728 685.85 313.224 684.494 312.507C682.796 311.607 680.235 313.895 680.128 313.994C677.985 315.934 677.804 318.744 677.826 319.861V319.888L675.537 319.735L675.541 319.708C676.75 313.146 676.479 309.345 674.734 308.409C674.27 308.16 673.812 308.165 673.282 308.17C672.609 308.177 671.844 308.185 670.861 307.663C669.316 306.843 668.169 305.238 667.868 303.472C667.582 301.79 668.12 300.406 668.466 299.731C670.227 296.193 672.982 293.348 676.224 291.721C679.281 290.186 682.541 289.871 685.167 290.857C692.243 293.513 692.495 304.529 692.499 305.777C692.514 308.997 691.736 312.159 690.19 315.174C689.647 318.117 688.871 321.051 687.88 323.891C686.904 326.699 685.798 329.873 684.621 329.873ZM683.607 312.25C683.923 312.25 684.231 312.313 684.518 312.464C685.894 313.193 686.212 315.727 685.647 317.634C685.307 318.78 684.703 319.431 684.12 320.061C683.478 320.753 682.814 321.469 682.519 322.848C682.236 324.171 682.46 325.295 682.593 325.967C682.625 326.121 683.36 329.743 684.582 329.821C684.596 329.823 684.609 329.823 684.623 329.823C685.764 329.823 686.864 326.666 687.836 323.877C688.826 321.037 689.603 318.105 690.144 315.163L690.146 315.157C691.691 312.148 692.466 308.993 692.452 305.781C692.447 304.537 692.197 293.551 685.153 290.905C682.538 289.923 679.294 290.238 676.25 291.766C673.016 293.39 670.269 296.226 668.513 299.755C668.169 300.425 667.635 301.797 667.92 303.466C668.219 305.216 669.355 306.808 670.887 307.62C671.86 308.136 672.618 308.129 673.285 308.121C673.822 308.114 674.286 308.11 674.761 308.365C675.552 308.79 676.051 309.791 676.245 311.341C676.482 313.254 676.265 316.062 675.6 319.689L677.78 319.834C677.762 318.692 677.957 315.895 680.098 313.956C680.185 313.876 682.003 312.25 683.607 312.25Z" fill="black"/>
<path d="M651.406 312.004L647.025 312.351L647.078 313.019L651.459 312.672L651.406 312.004Z" fill="#020A54"/>
<path d="M651.237 319.536C650.43 319.536 649.627 319.196 648.932 318.552C648.112 317.792 647.536 316.692 647.313 315.456C646.846 312.874 648.076 310.482 650.055 310.125C652.033 309.767 654.023 311.576 654.491 314.158C654.714 315.395 654.562 316.626 654.058 317.625C653.542 318.651 652.722 319.314 651.748 319.49C651.578 319.52 651.407 319.536 651.237 319.536ZM650.565 310.649C650.43 310.649 650.293 310.661 650.158 310.685C648.488 310.987 647.464 313.082 647.875 315.354C648.076 316.47 648.589 317.457 649.319 318.133C650.027 318.79 650.853 319.071 651.648 318.928C652.441 318.785 653.117 318.231 653.55 317.369C653.997 316.479 654.132 315.375 653.931 314.259C653.553 312.172 652.093 310.649 650.565 310.649Z" fill="#020A54"/>
<path d="M661.162 319.795C658.923 319.795 657.103 317.683 657.103 315.088C657.103 312.493 658.923 310.382 661.162 310.382C663.401 310.382 665.221 312.494 665.221 315.088C665.223 317.685 663.401 319.795 661.162 319.795ZM661.162 310.954C659.238 310.954 657.672 312.809 657.672 315.089C657.672 317.37 659.238 319.225 661.162 319.225C663.086 319.225 664.652 317.37 664.652 315.089C664.652 312.809 663.086 310.954 661.162 310.954Z" fill="#020A54"/>
<path d="M654.175 314.034C654.348 313.604 654.596 313.408 654.738 313.318C655.43 312.882 656.572 313.142 657.493 314.048C657.567 313.793 657.641 313.538 657.716 313.285C657.15 313.063 656.659 312.934 656.295 312.855C655.595 312.706 655.238 312.633 654.839 312.789C654.418 312.953 654.167 313.285 654.036 313.497C654.082 313.675 654.127 313.854 654.175 314.034Z" fill="#020A54"/>
<path d="M683.5 312.365L664.459 312.904L664.471 313.336L683.512 312.797L683.5 312.365Z" fill="#020A54"/>
<path d="M665.07 348.608C668.181 346.647 671.598 344.236 675.129 341.29C679.155 337.93 682.483 334.581 685.188 331.532C686.204 333.361 687.22 335.191 688.235 337.02C683.663 343.931 679.091 350.842 674.518 357.753C671.37 354.706 668.22 351.658 665.07 348.608Z" fill="white"/>
<path d="M658.365 355.317C660.601 353.08 662.835 350.846 665.071 348.609C663.446 346.984 661.819 345.356 660.193 343.731C659.585 347.593 658.974 351.455 658.365 355.317Z" fill="white"/>
<path d="M647.897 444.161C647.281 444.492 646.41 444.82 645.538 444.569C644.339 444.222 644.04 443.039 643.077 442.087C641.901 440.922 640.665 441.026 637.951 440.545C631.713 439.437 629.789 437.389 628.036 438.716C627.407 439.193 626.9 440.027 627.02 440.784C627.02 440.784 627.245 441.772 633.11 443.415C634.457 443.793 635.62 444.229 635.596 444.32C635.577 444.392 634.599 444.026 633.173 444.071C632.421 444.095 632.404 444.207 631.062 444.358C629.564 444.526 629.251 444.424 629.122 444.655C628.824 445.189 630.399 445.902 631.029 447.789C631.43 448.992 631.321 450.3 631.213 451.611C631.132 452.579 630.999 453.02 631.161 453.838C631.331 454.688 631.559 454.636 631.883 455.808C632.086 456.545 632.284 457.258 632.309 458.218C632.328 458.909 632.238 459.164 632.448 459.359C632.756 459.648 633.25 459.415 634.482 459.206C634.842 459.145 634.378 459.236 636.883 458.954C637.947 458.835 638.478 458.775 639.113 458.693C641.002 458.449 641.946 458.326 642.494 458.123C643.439 457.771 644.092 457.304 644.965 456.674C645.776 456.092 646.402 455.531 646.844 455.103C648.833 454.985 651.217 454.689 653.857 454.04C656.748 453.327 659.181 452.376 661.105 451.474C658.619 447.867 656.133 444.262 653.649 440.655C651.733 441.824 649.815 442.993 647.897 444.161Z" fill="#F8B586"/>
<path d="M631.339 445.821L631.297 445.606C631.157 444.877 630.446 444.397 629.717 444.537L617.618 446.877C616.89 447.017 616.41 447.729 616.55 448.457L616.591 448.673C616.731 449.402 617.442 449.882 618.17 449.742L630.27 447.401C631 447.261 631.481 446.55 631.339 445.821Z" fill="#F8B586"/>
<path d="M632.058 449.654L632.045 449.589C631.897 448.828 631.155 448.324 630.393 448.472L616.853 451.091C616.091 451.238 615.588 451.981 615.736 452.743L615.748 452.808C615.896 453.569 616.639 454.073 617.4 453.925L630.941 451.306C631.702 451.16 632.206 450.415 632.058 449.654Z" fill="#F8B586"/>
<path d="M633.86 453.062L633.847 452.999C633.699 452.238 632.957 451.734 632.195 451.882L618.655 454.501C617.893 454.649 617.39 455.391 617.538 456.153L617.55 456.216C617.698 456.978 618.441 457.481 619.202 457.333L632.743 454.715C633.506 454.568 634.008 453.824 633.86 453.062Z" fill="#F8B586"/>
<path d="M638.435 457.072L638.424 457.007C638.301 456.241 637.573 455.715 636.807 455.838L623.191 458.03C622.424 458.153 621.899 458.882 622.022 459.648L622.033 459.713C622.155 460.479 622.884 461.005 623.65 460.882L637.266 458.69C638.032 458.567 638.558 457.838 638.435 457.072Z" fill="#F8B586"/>
<path d="M704.519 350.795C698.33 354.868 696.465 362.301 694.805 373.663C693.366 383.523 691.986 396.978 692.049 413.346C687.145 417.431 681.573 421.674 675.302 425.868C666.551 431.719 658.169 436.314 650.604 439.934C653.083 444.855 655.561 449.776 658.039 454.697C675.519 447.465 692.999 440.233 710.478 433C712.891 426.803 716.51 416.422 718.993 403.133C720.088 397.277 727.887 353.799 715.368 348.466C710.975 346.595 705.618 350.071 704.519 350.795Z" fill="url(#paint25_linear_1483_6)"/>
<path d="M645.879 442.777L647.748 447.208L652.57 445.155L650.497 440.694L645.879 442.777Z" fill="#BAEAF7"/>
<path d="M649.496 452.299C649.948 453.309 650.398 454.32 650.849 455.33C652.5 454.883 654.15 454.436 655.799 453.989C655.237 452.73 654.677 451.473 654.116 450.214L649.496 452.299Z" fill="#BAEAF7"/>
<path d="M655.339 450.075C654.974 452.431 652.768 454.046 650.411 453.681C648.056 453.316 646.441 451.109 646.806 448.752C647.171 446.394 649.377 444.781 651.734 445.146C654.091 445.511 655.705 447.719 655.339 450.075Z" fill="#BAEAF7"/>
<path d="M651.077 454.143C650.836 454.143 650.593 454.124 650.35 454.087C647.774 453.687 646.002 451.265 646.402 448.689C646.596 447.441 647.263 446.342 648.282 445.596C649.302 444.85 650.551 444.546 651.799 444.74C654.374 445.14 656.146 447.562 655.746 450.138C655.384 452.472 653.366 454.143 651.077 454.143ZM651.065 445.506C650.243 445.506 649.443 445.766 648.767 446.26C647.925 446.877 647.373 447.784 647.214 448.814C646.883 450.944 648.347 452.944 650.475 453.274C652.606 453.605 654.604 452.141 654.934 450.012C655.265 447.883 653.802 445.883 651.673 445.552C651.468 445.522 651.267 445.506 651.065 445.506Z" fill="white"/>
<defs>
<linearGradient id="paint0_linear_1483_6" x1="149.545" y1="464.598" x2="417.084" y2="508.826" gradientUnits="userSpaceOnUse">
<stop stop-color="#18029D"/>
<stop offset="1" stop-color="#1C40F2"/>
</linearGradient>
<linearGradient id="paint1_linear_1483_6" x1="149.545" y1="516.586" x2="417.084" y2="560.814" gradientUnits="userSpaceOnUse">
<stop stop-color="#18029D"/>
<stop offset="1" stop-color="#1C40F2"/>
</linearGradient>
<linearGradient id="paint2_linear_1483_6" x1="148.249" y1="476.112" x2="404.495" y2="476.112" gradientUnits="userSpaceOnUse">
<stop stop-color="#1C40F2"/>
<stop offset="0.9833" stop-color="#03F8FB"/>
</linearGradient>
<linearGradient id="paint3_linear_1483_6" x1="278.148" y1="484.251" x2="414.001" y2="499.232" gradientUnits="userSpaceOnUse">
<stop stop-color="#0082F8"/>
<stop offset="1" stop-color="#1C40F2"/>
</linearGradient>
<linearGradient id="paint4_linear_1483_6" x1="149.545" y1="484.251" x2="285.383" y2="499.229" gradientUnits="userSpaceOnUse">
<stop stop-color="#0082F8"/>
<stop offset="1" stop-color="#1C40F2"/>
</linearGradient>
<linearGradient id="paint5_linear_1483_6" x1="149.545" y1="536.12" x2="285.383" y2="551.098" gradientUnits="userSpaceOnUse">
<stop stop-color="#0082F8"/>
<stop offset="1" stop-color="#1C40F2"/>
</linearGradient>
<linearGradient id="paint6_linear_1483_6" x1="149.545" y1="588.108" x2="285.383" y2="603.085" gradientUnits="userSpaceOnUse">
<stop stop-color="#0082F8"/>
<stop offset="1" stop-color="#1C40F2"/>
</linearGradient>
<linearGradient id="paint7_linear_1483_6" x1="278.148" y1="536.12" x2="414.001" y2="551.101" gradientUnits="userSpaceOnUse">
<stop stop-color="#0082F8"/>
<stop offset="1" stop-color="#1C40F2"/>
</linearGradient>
<linearGradient id="paint8_linear_1483_6" x1="278.148" y1="588.108" x2="414.001" y2="603.088" gradientUnits="userSpaceOnUse">
<stop stop-color="#0082F8"/>
<stop offset="1" stop-color="#1C40F2"/>
</linearGradient>
<linearGradient id="paint9_linear_1483_6" x1="496.091" y1="199.442" x2="732.605" y2="100.256" gradientUnits="userSpaceOnUse">
<stop stop-color="#4500E9"/>
<stop offset="0.05" stop-color="#4008EA" stop-opacity="0.87"/>
<stop offset="0.14" stop-color="#3715EC" stop-opacity="0.67"/>
<stop offset="0.23" stop-color="#3021EE" stop-opacity="0.49"/>
<stop offset="0.33" stop-color="#2A2AEF" stop-opacity="0.34"/>
<stop offset="0.44" stop-color="#2532F0" stop-opacity="0.21"/>
<stop offset="0.55" stop-color="#2138F1" stop-opacity="0.12"/>
<stop offset="0.67" stop-color="#1E3DF2" stop-opacity="0.05"/>
<stop offset="0.81" stop-color="#1D3FF2" stop-opacity="0.01"/>
<stop offset="1" stop-color="#1C40F2" stop-opacity="0"/>
</linearGradient>
<linearGradient id="paint10_linear_1483_6" x1="533.563" y1="76.4393" x2="508.128" y2="215.035" gradientUnits="userSpaceOnUse">
<stop stop-color="#F5F7FA"/>
<stop offset="1" stop-color="#C3CFE2"/>
</linearGradient>
<linearGradient id="paint11_linear_1483_6" x1="637.995" y1="186.724" x2="786.269" y2="124.542" gradientUnits="userSpaceOnUse">
<stop stop-color="#4500E9"/>
<stop offset="0.05" stop-color="#4008EA" stop-opacity="0.87"/>
<stop offset="0.14" stop-color="#3715EC" stop-opacity="0.67"/>
<stop offset="0.23" stop-color="#3021EE" stop-opacity="0.49"/>
<stop offset="0.33" stop-color="#2A2AEF" stop-opacity="0.34"/>
<stop offset="0.44" stop-color="#2532F0" stop-opacity="0.21"/>
<stop offset="0.55" stop-color="#2138F1" stop-opacity="0.12"/>
<stop offset="0.67" stop-color="#1E3DF2" stop-opacity="0.05"/>
<stop offset="0.81" stop-color="#1D3FF2" stop-opacity="0.01"/>
<stop offset="1" stop-color="#1C40F2" stop-opacity="0"/>
</linearGradient>
<linearGradient id="paint12_linear_1483_6" x1="661.588" y1="109.63" x2="645.644" y2="196.533" gradientUnits="userSpaceOnUse">
<stop stop-color="#F5F7FA"/>
<stop offset="1" stop-color="#C3CFE2"/>
</linearGradient>
<linearGradient id="paint13_linear_1483_6" x1="542.41" y1="95.1878" x2="618.377" y2="63.3342" gradientUnits="userSpaceOnUse">
<stop stop-color="#4500E9"/>
<stop offset="0.05" stop-color="#4008EA" stop-opacity="0.87"/>
<stop offset="0.14" stop-color="#3715EC" stop-opacity="0.67"/>
<stop offset="0.23" stop-color="#3021EE" stop-opacity="0.49"/>
<stop offset="0.33" stop-color="#2A2AEF" stop-opacity="0.34"/>
<stop offset="0.44" stop-color="#2532F0" stop-opacity="0.21"/>
<stop offset="0.55" stop-color="#2138F1" stop-opacity="0.12"/>
<stop offset="0.67" stop-color="#1E3DF2" stop-opacity="0.05"/>
<stop offset="0.81" stop-color="#1D3FF2" stop-opacity="0.01"/>
<stop offset="1" stop-color="#1C40F2" stop-opacity="0"/>
</linearGradient>
<linearGradient id="paint14_linear_1483_6" x1="554.388" y1="55.6967" x2="546.211" y2="100.221" gradientUnits="userSpaceOnUse">
<stop stop-color="#F5F7FA"/>
<stop offset="1" stop-color="#C3CFE2"/>
</linearGradient>
<linearGradient id="paint15_linear_1483_6" x1="271.255" y1="575.425" x2="343.44" y2="569.724" gradientUnits="userSpaceOnUse">
<stop stop-color="#001DAC"/>
<stop offset="1" stop-color="#000F57"/>
</linearGradient>
<linearGradient id="paint16_linear_1483_6" x1="242.036" y1="558.361" x2="384.795" y2="529.278" gradientUnits="userSpaceOnUse">
<stop stop-color="#001DAC"/>
<stop offset="1" stop-color="#000F57"/>
</linearGradient>
<linearGradient id="paint17_linear_1483_6" x1="310.694" y1="430.309" x2="237.474" y2="430.309" gradientUnits="userSpaceOnUse">
<stop stop-color="#1C40F2"/>
<stop offset="0.9833" stop-color="#03F8FB"/>
</linearGradient>
<linearGradient id="paint18_linear_1483_6" x1="659.139" y1="377.519" x2="558.051" y2="313.674" gradientUnits="userSpaceOnUse">
<stop stop-color="#1C40F2"/>
<stop offset="0.9833" stop-color="#03F8FB"/>
</linearGradient>
<linearGradient id="paint19_linear_1483_6" x1="720.548" y1="510.607" x2="668.079" y2="505.769" gradientUnits="userSpaceOnUse">
<stop stop-color="#001DAC"/>
<stop offset="1" stop-color="#000F57"/>
</linearGradient>
<linearGradient id="paint20_linear_1483_6" x1="703.619" y1="595.807" x2="669.635" y2="594.046" gradientUnits="userSpaceOnUse">
<stop stop-color="#001DAC"/>
<stop offset="1" stop-color="#000F57"/>
</linearGradient>
<linearGradient id="paint21_linear_1483_6" x1="707.719" y1="516.955" x2="573.259" y2="493.077" gradientUnits="userSpaceOnUse">
<stop stop-color="#001DAC"/>
<stop offset="1" stop-color="#000F57"/>
</linearGradient>
<linearGradient id="paint22_linear_1483_6" x1="689.88" y1="331.409" x2="607.118" y2="454.37" gradientUnits="userSpaceOnUse">
<stop stop-color="#1C40F2"/>
<stop offset="0.9833" stop-color="#03F8FB"/>
</linearGradient>
<linearGradient id="paint23_linear_1483_6" x1="698.158" y1="301.259" x2="705.252" y2="503.435" gradientUnits="userSpaceOnUse">
<stop stop-color="#1C40F2"/>
<stop offset="0.9833" stop-color="#03F8FB"/>
</linearGradient>
<linearGradient id="paint24_linear_1483_6" x1="667.812" y1="289.166" x2="696.536" y2="292.805" gradientUnits="userSpaceOnUse">
<stop stop-color="#102062"/>
<stop offset="1" stop-color="#060B43"/>
</linearGradient>
<linearGradient id="paint25_linear_1483_6" x1="704.727" y1="357.742" x2="641.404" y2="477.425" gradientUnits="userSpaceOnUse">
<stop stop-color="#1C40F2"/>
<stop offset="0.9833" stop-color="#03F8FB"/>
</linearGradient>
</defs>
</svg>
